<svg width="164" height="470" viewBox="0 0 164 470" fill="none" xmlns="http://www.w3.org/2000/svg">
<path d="M109.335 457.807L97.2023 457.806L91.431 410.934L109.337 410.935L109.335 457.807Z" fill="#30FF9C"/>
<path d="M112.429 453.839L88.5366 453.839H88.5356C84.4974 453.839 80.6247 455.446 77.7693 458.306C74.9139 461.166 73.3096 465.045 73.3093 469.089V469.585L112.428 469.586L112.429 453.839Z" fill="#434255"/>
<path d="M63.8135 457.807L51.6812 457.806L45.9099 410.934L63.8154 410.935L63.8135 457.807Z" fill="#30FF9C"/>
<path d="M66.9082 453.839L43.0157 453.839H43.0147C38.9766 453.839 35.1039 455.446 32.2485 458.306C29.3931 461.166 27.7888 465.045 27.7885 469.089V469.585L66.9075 469.586L66.9082 453.839Z" fill="#434255"/>
<path d="M146.147 272.593C145.154 271.528 144.406 270.258 143.956 268.872C143.506 267.486 143.365 266.019 143.543 264.572C143.72 263.126 144.213 261.737 144.984 260.501C145.756 259.266 146.789 258.216 148.01 257.424L139.581 223.024L156.891 229.202L162.242 260.921C163.434 263.064 163.801 265.571 163.271 267.966C162.742 270.362 161.354 272.479 159.37 273.918C157.386 275.357 154.944 276.016 152.507 275.772C150.07 275.528 147.807 274.397 146.147 272.593Z" fill="#FDA57D"/>
<path d="M17.3612 269.619C18.3542 268.554 19.1019 267.284 19.5518 265.899C20.0017 264.513 20.1427 263.045 19.965 261.599C19.7873 260.153 19.2952 258.763 18.5234 257.528C17.7515 256.293 16.7186 255.242 15.4976 254.45L23.927 220.051L6.61686 226.229L1.26596 257.948C0.0734749 260.091 -0.292812 262.597 0.236519 264.993C0.765848 267.388 2.15402 269.506 4.13798 270.944C6.12194 272.383 8.56384 273.043 11.001 272.799C13.4381 272.554 15.7011 271.423 17.3612 269.619Z" fill="#FDA57D"/>
<path d="M130.184 248.48L113.368 445.794L88.7631 443.547L78.9157 291.05L70.15 351.432L68.3945 447.347L46.1289 445.86L33.765 342.676L36.7981 242.746L121.325 234.172L130.184 248.48Z" fill="#434255"/>
<path d="M110.479 77.6594H65.5403L33.7651 245.743C33.7651 245.743 61.4674 248.115 77.3007 254.063C93.134 260.01 119.455 240.477 119.455 240.477L110.479 77.6594Z" fill="#30FF9C"/>
<path d="M104.869 96.6408V77.6594L109.957 77.6284L147.132 101.303L139.066 231.015C139.066 231.015 129.518 274.289 115.037 273.84C100.556 273.391 89.3898 119.122 104.869 96.6408Z" fill="#6B6E9D"/>
<path d="M135.191 104.887L147.133 101.303C147.133 101.303 155.973 103.895 155.973 112.816C155.973 121.737 163.589 248.48 163.589 248.48L139.393 250.622L134.202 186.165L135.191 104.887Z" fill="#6B6E9D"/>
<path d="M68.8896 90.0185L71.2699 77.6595L64.4364 76.6372L39.6968 86.5492C39.6968 86.5492 17.4312 249.602 27.327 254.558C37.2229 259.514 43.9045 255.675 43.9045 255.675C43.9045 255.675 76.4532 135.416 70.6922 119.16L68.8896 90.0185Z" fill="#6B6E9D"/>
<path d="M57.0143 89.027L52.7922 87.1862C52.7922 87.1862 40.3995 81.0351 33.3684 93.4563C26.3372 105.877 1.59766 244.646 1.59766 244.646L21.9537 248.48L37.172 198.539L57.0143 89.027Z" fill="#6B6E9D"/>
<path d="M83.9258 68.9286C69.8331 68.9286 58.4087 57.4855 58.4087 43.3697C58.4087 29.2539 69.8331 17.8108 83.9258 17.8108C98.0185 17.8108 109.443 29.2539 109.443 43.3697C109.443 57.4855 98.0185 68.9286 83.9258 68.9286Z" fill="#FDA57D"/>
<path d="M92.0065 22.9222C92.0065 22.9222 80.0985 26.1171 73.9319 27.3951C67.7652 28.673 68.4032 25.0521 68.4032 25.0521C68.4032 25.0521 60.3227 26.1171 60.748 25.2651C61.1733 24.4132 57.3457 19.9404 61.8112 14.8286C66.2767 9.71675 65.0009 5.88295 65.0009 5.88295H68.8284L69.8917 4.392H75.8457C75.8457 4.392 82.4284 -1.38969 94.1238 0.314186C105.819 2.01807 119.65 6.52191 120.926 13.5506C121.099 14.504 121.327 15.5631 121.591 16.6818C124.79 30.2055 117.994 42.8589 110.947 54.8304C109.215 57.7725 100.837 64.1881 101.051 59.7864C101.265 55.3847 108.593 45.4993 103.489 44.8603C98.3859 44.2213 89.6675 31.2289 92.0065 22.9222Z" fill="#72351C"/>
<path d="M71.5958 60.2575L69.0354 64.7446C77.1437 69.6928 84.3862 69.9008 91.7357 67.7756L93.2491 54.136L103.843 43.5274L99.3025 33.6765C99.4047 40.1794 96.2758 46.5584 90.2224 53.3782C85.0883 59.1623 83.0097 60.2237 71.5958 60.2575L72.0621 59.4403L69.7233 57.167H62.2253L64.4954 60.198C67.2089 60.2367 69.552 60.2636 71.5958 60.2575Z" fill="#72351C"/>
</svg>
