<svg width="328" height="187" viewBox="0 0 328 187" fill="none" xmlns="http://www.w3.org/2000/svg">
<path d="M324 1.00146H4C1.79086 1.00146 0 2.79232 0 5.00146V182.266C0 184.475 1.79086 186.266 4 186.266H324C326.209 186.266 328 184.475 328 182.266V5.00146C328 2.79233 326.209 1.00146 324 1.00146Z" fill="#999999"/>
<path d="M310.81 22.5195H15.0347C12.8255 22.5195 11.0347 24.3104 11.0347 26.5195V168.024C11.0347 170.233 12.8255 172.024 15.0347 172.024H310.81C313.019 172.024 314.81 170.233 314.81 168.024V26.5195C314.81 24.3104 313.019 22.5195 310.81 22.5195Z" fill="#555555"/>
<path d="M323.791 0H4C1.79086 0 0 1.79087 0 4V11.6004C0 13.8096 1.79087 15.6004 4.00001 15.6004H323.791C326 15.6004 327.791 13.8096 327.791 11.6004V4C327.791 1.79086 326 0 323.791 0Z" fill="#30FF9C"/>
<g filter="url(#filter0_dd_152_432)">
<path d="M12.1041 10.3689C13.7753 10.3689 15.13 9.01221 15.13 7.33863C15.13 5.66505 13.7753 4.30835 12.1041 4.30835C10.4329 4.30835 9.07812 5.66505 9.07812 7.33863C9.07812 9.01221 10.4329 10.3689 12.1041 10.3689Z" fill="#2EFFFF"/>
</g>
<g filter="url(#filter1_dd_152_432)">
<path d="M22.9972 10.3689C24.6683 10.3689 26.0231 9.01221 26.0231 7.33863C26.0231 5.66505 24.6683 4.30835 22.9972 4.30835C21.326 4.30835 19.9712 5.66505 19.9712 7.33863C19.9712 9.01221 21.326 10.3689 22.9972 10.3689Z" fill="white"/>
</g>
<g filter="url(#filter2_dd_152_432)">
<path d="M34.4959 10.3689C36.1671 10.3689 37.5219 9.01221 37.5219 7.33863C37.5219 5.66505 36.1671 4.30835 34.4959 4.30835C32.8247 4.30835 31.47 5.66505 31.47 7.33863C31.47 9.01221 32.8247 10.3689 34.4959 10.3689Z" fill="white"/>
</g>
<path d="M169.669 58.4465C169.291 58.4465 168.928 58.5742 168.661 58.8015C168.393 59.0288 168.243 59.3371 168.243 59.6586C168.243 59.9801 168.393 60.2884 168.661 60.5157C168.928 60.743 169.291 60.8707 169.669 60.8707H247.913C248.291 60.8707 248.654 60.743 248.921 60.5157C249.189 60.2884 249.339 59.9801 249.339 59.6586C249.339 59.3371 249.189 59.0288 248.921 58.8015C248.654 58.5742 248.291 58.4465 247.913 58.4465H169.669Z" fill="#E6E6E6"/>
<path d="M169.672 66.9312C169.293 66.9321 168.929 67.0921 168.661 67.3761C168.394 67.6602 168.243 68.0451 168.243 68.4464C168.243 68.8476 168.394 69.2325 168.661 69.5166C168.929 69.8006 169.293 69.9606 169.672 69.9615H209.783C210.162 69.9606 210.526 69.8006 210.793 69.5166C211.061 69.2325 211.212 68.8476 211.212 68.4464C211.212 68.0451 211.061 67.6602 210.793 67.3761C210.526 67.0921 210.162 66.9321 209.783 66.9312H169.672Z" fill="#E6E6E6"/>
<path d="M166.539 108.972C166.269 108.972 166.009 109.109 165.817 109.353C165.626 109.597 165.518 109.927 165.518 110.272C165.518 110.617 165.626 110.947 165.817 111.191C166.009 111.435 166.269 111.572 166.539 111.572H271.597C271.868 111.572 272.128 111.435 272.319 111.191C272.511 110.947 272.618 110.617 272.618 110.272C272.618 109.927 272.511 109.597 272.319 109.353C272.128 109.109 271.868 108.972 271.597 108.972H166.539Z" fill="#2EFFFF"/>
<path d="M166.531 117.422C166.262 117.423 166.005 117.526 165.815 117.709C165.625 117.891 165.518 118.139 165.518 118.397C165.518 118.656 165.625 118.903 165.815 119.086C166.005 119.269 166.262 119.372 166.531 119.372H243.695C243.964 119.372 244.221 119.269 244.411 119.086C244.601 118.903 244.707 118.656 244.707 118.397C244.707 118.139 244.601 117.891 244.411 117.709C244.221 117.526 243.964 117.423 243.695 117.422H166.531Z" fill="#E6E6E6"/>
<path d="M166.537 126.523C166.267 126.523 166.008 126.626 165.817 126.809C165.626 126.992 165.518 127.239 165.518 127.498C165.518 127.756 165.626 128.004 165.817 128.186C166.008 128.369 166.267 128.472 166.537 128.473H271.599C271.87 128.472 272.129 128.369 272.32 128.186C272.511 128.004 272.618 127.756 272.618 127.498C272.618 127.239 272.511 126.992 272.32 126.809C272.129 126.626 271.87 126.523 271.599 126.523H166.537Z" fill="#E6E6E6"/>
<path d="M166.531 134.323C166.262 134.323 166.005 134.461 165.815 134.705C165.625 134.948 165.518 135.278 165.518 135.623C165.518 135.967 165.625 136.297 165.815 136.541C166.005 136.785 166.262 136.922 166.531 136.923H243.695C243.964 136.922 244.221 136.785 244.411 136.541C244.601 136.297 244.707 135.967 244.707 135.623C244.707 135.278 244.601 134.948 244.411 134.705C244.221 134.461 243.964 134.323 243.695 134.323H166.531Z" fill="#E6E6E6"/>
<path d="M82.8179 142.533C81.2446 142.405 79.6798 142.191 78.1303 141.892C76.6782 141.611 75.7041 140.273 75.7808 138.796L76.8776 118.601C76.8832 118.514 76.9555 118.446 77.0427 118.446H95.6289C97.5556 118.446 99.2086 119.82 99.5613 121.714L102.416 137.041L102.427 137.102C102.692 138.523 101.918 139.95 100.545 140.406C100.401 140.454 100.257 140.501 100.112 140.547C100.104 140.55 100.096 140.551 100.09 140.556C100.085 140.562 100.076 140.562 100.069 140.565C98.7627 140.976 97.4362 141.336 96.0993 141.635C94.3168 142.026 92.513 142.309 90.6974 142.482C89.2938 142.623 87.8841 142.692 86.4736 142.688C85.2549 142.688 84.0262 142.637 82.8179 142.533Z" fill="#30FF9C"/>
<path d="M69.1623 139.074C68.2376 138.669 67.3436 138.232 66.4601 137.775L66.0798 137.578C65.8229 137.443 65.556 137.298 65.2991 137.152C64.9494 136.955 64.6103 136.758 64.2817 136.56C63.9631 136.373 63.6345 136.176 63.3159 135.979C63.2833 135.962 63.2484 135.947 63.2177 135.927C62.1242 135.22 61.051 134.492 60.0178 133.704C59.6847 133.446 59.4786 133.058 59.4527 132.638L59.3282 130.621C59.3163 130.428 59.4113 130.244 59.5758 130.141L77.5056 118.612L77.7519 118.456C77.7655 118.45 77.7804 118.446 77.7955 118.446L78.2621 118.448C79.389 118.453 80.3001 119.367 80.3001 120.494V126.733C80.3001 127.539 80.5618 128.318 80.9054 129.047C82.0068 131.385 82.7826 135.28 83.2902 140.154C83.4232 141.48 82.3077 142.594 80.9877 142.41C79.3978 142.188 77.8203 141.879 76.2624 141.483C76.0055 141.431 75.7587 141.369 75.5018 141.296C74.0044 140.9 72.5296 140.422 71.0838 139.863C70.6418 139.697 70.2103 139.52 69.7789 139.344L69.7377 139.323C69.5526 139.24 69.3474 139.157 69.1623 139.074Z" fill="#6B6E9D"/>
<path d="M64.7454 136.122C64.7497 136.595 64.2243 136.878 63.8383 136.605C63.551 136.406 63.2548 136.197 62.9676 135.987C62.9386 135.97 62.9069 135.954 62.8801 135.933C61.894 135.182 60.9261 134.408 59.9943 133.57C59.8369 133.426 59.6794 133.283 59.5217 133.14C59.448 133.062 59.3737 132.996 59.2901 132.919C58.6991 132.379 58.1262 131.818 57.5716 131.224C57.5688 131.221 57.5658 131.218 57.5626 131.215C57.5228 131.18 57.5286 131.109 57.5682 131.074C57.9708 130.717 58.407 130.417 58.8676 130.182C59.1752 130.025 59.5347 130.024 59.8604 130.139L60.0129 130.193L62.5696 131.108C63.8503 131.566 64.7109 132.773 64.7275 134.133L64.7454 136.122Z" fill="#6B6E9D"/>
<path d="M107.814 136.56C108.077 137.114 107.823 137.726 107.277 138.004C107.206 138.045 107.145 138.076 107.084 138.107C106.681 138.312 106.288 138.516 105.885 138.711C105.881 138.713 105.875 138.717 105.87 138.72C105.854 138.728 105.837 138.74 105.82 138.747C105.805 138.754 105.789 138.76 105.777 138.766C104.864 139.209 103.942 139.621 102.999 140.002C102.09 140.361 101.171 140.7 100.233 140.997C100.225 141 100.216 141 100.211 141.006C100.205 141.012 100.197 141.012 100.19 141.015C99.6271 141.192 99.0608 141.359 98.4914 141.517C97.3292 141.837 96.1979 140.938 96.4996 139.771C96.5041 139.754 96.5086 139.736 96.5132 139.719C96.5378 139.626 96.5547 139.531 96.5613 139.435L97.4032 125.597C97.4233 125.266 97.4022 124.934 97.3405 124.609L96.7433 121.46C96.4834 120.09 97.4138 118.778 98.7931 118.57C99.325 118.489 99.8684 118.586 100.34 118.844L113.366 125.967C115.695 127.241 115.952 130.163 113.69 131.553C112.196 132.471 110.228 133.603 107.662 134.955C107.168 135.216 107.492 135.882 107.814 136.56Z" fill="#6B6E9D"/>
<path d="M90.8153 140.05C89.5066 140.171 88.1782 140.232 86.8498 140.232C86.0526 140.232 85.2594 140.213 84.4677 140.169C83.7092 140.127 83.073 140.746 83.1388 141.502C83.1899 142.089 83.6554 142.574 84.2426 142.61C85.1093 142.662 85.9821 142.688 86.8498 142.688C88.2478 142.692 89.6452 142.624 91.0365 142.485C92.1015 142.385 93.1625 142.246 94.2174 142.07C95.4865 141.859 96.3289 140.709 96.6402 139.46C96.6622 139.372 96.6856 139.284 96.7104 139.197C96.7123 139.19 96.7134 139.184 96.7139 139.177C96.7184 139.112 96.6581 139.061 96.5945 139.076C94.6931 139.536 92.7619 139.862 90.8153 140.05ZM128.85 83.0961C128.85 83.0961 128.85 83.0961 128.85 83.0961C126.723 76.9359 123.289 71.3175 118.788 66.6329C114.286 61.9483 108.825 58.3101 102.786 55.9721C96.7469 53.634 90.2745 52.6524 83.8203 53.0957C77.3662 53.539 71.0856 55.3964 65.4165 58.5386C59.7474 61.6807 54.8264 66.0319 50.9964 71.2888C47.1664 76.5456 44.5198 82.5815 43.241 88.9757C41.9622 95.3698 42.0821 101.968 43.5922 108.311C45.1024 114.654 47.9665 120.588 51.9848 125.7C52.3873 126.207 52.8001 126.714 53.2228 127.202C53.2631 127.242 53.2832 127.273 53.3132 127.303C54.3523 128.511 55.4578 129.66 56.6246 130.743C56.9067 131.007 57.1981 131.271 57.4901 131.525C57.5205 131.545 57.5407 131.576 57.5707 131.596C58.1746 132.144 58.7988 132.661 59.4426 133.159C59.5335 133.23 59.6141 133.291 59.6942 133.362C59.8657 133.494 60.0369 133.626 60.2078 133.757C61.2199 134.528 62.2712 135.239 63.3423 135.93C63.3724 135.949 63.4066 135.964 63.4386 135.98C63.7506 136.173 64.0725 136.366 64.3846 136.548C64.707 136.741 65.0392 136.934 65.3812 137.127C65.6329 137.269 65.8943 137.411 66.1459 137.543L66.5185 137.736C67.3839 138.182 68.2597 138.608 69.1654 139.004C69.3467 139.085 69.5478 139.167 69.7291 139.248L69.7694 139.268C70.192 139.441 70.6147 139.613 71.0476 139.776C72.4638 140.321 73.9086 140.789 75.3753 141.176C75.627 141.247 75.8688 141.308 76.1204 141.359C78.4526 141.949 80.8294 142.343 83.2263 142.536C84.4239 142.637 85.6418 142.688 86.8497 142.688C88.2478 142.692 89.6452 142.624 91.0364 142.485C92.836 142.315 94.6239 142.037 96.3908 141.653C97.7159 141.36 99.0306 141.005 100.325 140.601C100.333 140.599 100.341 140.598 100.346 140.593C100.352 140.587 100.361 140.586 100.368 140.584C101.3 140.29 102.212 139.957 103.114 139.603C104.05 139.228 104.967 138.822 105.872 138.385C105.884 138.379 105.9 138.373 105.915 138.367C105.932 138.36 105.949 138.348 105.965 138.34C105.97 138.337 105.975 138.333 105.98 138.331C106.38 138.139 106.77 137.937 107.171 137.736C107.231 137.705 107.291 137.675 107.362 137.634C107.664 137.482 107.965 137.32 108.268 137.157C108.288 137.147 108.298 137.137 108.318 137.127C109.113 136.68 109.898 136.213 110.673 135.716C110.885 135.584 111.096 135.452 111.307 135.3C111.619 135.107 111.921 134.894 112.213 134.681C112.606 134.407 112.998 134.123 113.381 133.828C113.508 133.746 113.629 133.655 113.743 133.555C114.679 132.844 115.585 132.093 116.45 131.302C123.014 125.404 127.696 117.676 129.903 109.096C132.11 100.515 131.744 91.4668 128.85 83.0962C128.85 83.0961 128.85 83.0961 128.85 83.0961ZM115.695 128.683C115.695 128.683 115.695 128.683 115.695 128.683C114.606 129.717 113.464 130.692 112.273 131.606C112.012 131.809 111.74 132.012 111.469 132.195C111.207 132.398 110.945 132.59 110.673 132.773C110.455 132.926 110.237 133.079 110.01 133.224C109.983 133.241 109.956 133.261 109.928 133.279C109.907 133.292 109.888 133.308 109.868 133.322C109.705 133.436 109.536 133.541 109.375 133.646C108.841 133.981 108.288 134.316 107.744 134.63C107.614 134.701 107.493 134.782 107.362 134.853C107.291 134.894 107.221 134.935 107.14 134.975C106.849 135.142 106.557 135.29 106.265 135.446C106.245 135.457 106.226 135.47 106.205 135.481C106.18 135.494 106.153 135.504 106.128 135.518C106.112 135.527 106.093 135.533 106.077 135.543C106.067 135.549 106.059 135.556 106.049 135.562C105.842 135.67 105.636 135.769 105.43 135.868C105.248 135.96 105.077 136.051 104.896 136.132C104.161 136.487 103.406 136.822 102.651 137.137C101.856 137.462 101.051 137.756 100.236 138.03C100.034 138.101 99.8231 138.182 99.6118 138.243C98.6554 138.548 97.6996 138.822 96.723 139.045C94.7801 139.522 92.8059 139.857 90.8153 140.049C89.5066 140.171 88.1782 140.232 86.8498 140.232C85.5612 140.232 84.283 140.181 83.0047 140.06C80.7246 139.849 78.4657 139.449 76.2512 138.862C76.1706 138.842 76.0802 138.822 75.9996 138.801C74.1831 138.324 72.4036 137.713 70.6752 136.975C70.5848 136.934 70.4841 136.903 70.4035 136.863C70.3027 136.822 70.2123 136.792 70.1317 136.751C70.0309 136.711 69.9405 136.67 69.8501 136.629C69.0952 136.295 68.3605 135.929 67.6258 135.554L67.2832 135.371C66.6291 135.026 65.9848 134.671 65.3509 134.275C65.1297 134.153 64.8982 134.011 64.6766 133.869C64.425 133.717 64.1734 133.554 63.9316 133.392C63.8716 133.351 63.8113 133.311 63.7507 133.27C63.187 132.885 62.6135 132.499 62.07 132.083C61.6876 131.799 61.3151 131.525 60.9425 131.23C60.7008 131.048 60.4595 130.855 60.228 130.652C60.0771 130.54 59.9262 130.408 59.7749 130.277C59.5739 130.104 59.3724 129.931 59.1714 129.749C58.8593 129.495 58.5674 129.211 58.2853 128.947C57.152 127.894 56.08 126.776 55.0746 125.598C54.7326 125.212 54.4102 124.827 54.0986 124.421C54.026 124.341 53.9586 124.256 53.8971 124.167C48.83 117.717 45.7341 109.92 44.9871 101.726C44.2401 93.5327 45.8743 85.297 49.6904 78.0239C53.5064 70.7508 59.3393 64.7547 66.4774 60.7672C73.6156 56.7797 81.7504 54.9731 89.8894 55.5679C98.0285 56.1627 105.82 59.1331 112.313 64.1168C118.807 69.1004 123.721 75.8819 126.457 83.6338C129.193 91.3857 129.632 99.773 127.722 107.772C125.811 115.772 121.632 123.038 115.696 128.683C115.695 128.683 115.695 128.683 115.695 128.683Z" fill="#3F3D56"/>
<path d="M89.218 115.746C97.5334 115.746 104.274 108.984 104.274 100.644C104.274 92.3028 97.5334 85.5413 89.218 85.5413C80.9026 85.5413 74.1616 92.3028 74.1616 100.644C74.1616 108.984 80.9026 115.746 89.218 115.746Z" fill="#FDA57D"/>
<path d="M83.4176 95.3798C84.7249 92.5663 88.2486 89.5747 91.2616 90.314C92.6628 90.6579 94.0374 90.9808 95.1149 91.2044C97.1525 91.6273 100.492 90.34 102.562 90.1221C102.809 90.0961 102.942 90.0414 102.894 89.9459C102.643 89.4425 104.902 86.7996 102.267 83.7791C101.005 82.3329 100.52 81.0599 100.357 80.1257C100.218 79.3275 99.5486 78.4933 98.7384 78.4933H98.6669C98.3276 78.4933 98.0093 78.3292 97.8125 78.0528C97.6157 77.7765 97.2973 77.6124 96.958 77.6124H95.47C94.5133 77.6124 93.5905 77.2574 92.759 76.7843C91.1083 75.8452 87.8346 74.5268 83.2007 75.2029C76.2998 76.2096 68.1389 78.8709 67.386 83.024C67.2839 83.5873 67.1495 84.2132 66.9934 84.8742C65.1064 92.865 69.1158 100.342 73.2743 107.415C74.2963 109.154 79.2398 112.945 79.1133 110.344C78.9869 107.743 74.6633 101.902 77.6746 101.524C79.4368 101.303 81.9295 98.5826 83.4176 95.3798Z" fill="#72351C"/>
<path d="M96.8432 111.236L97.0105 111.53C97.564 112.501 97.251 113.75 96.2439 114.236C93.0941 115.755 90.1445 116.078 87.2187 115.643C85.6178 115.404 84.4934 114.015 84.3152 112.407L83.871 108.397C83.7711 107.496 83.368 106.655 82.7277 106.013L78.0447 101.317C77.6969 100.968 77.6027 100.44 77.8087 99.9922C78.3414 98.8346 80.7974 99.1699 81.3116 100.336C82.2086 102.37 83.6145 104.427 85.5026 106.557C88.554 110 89.7762 110.611 96.6406 110.622C96.5816 110.129 96.7498 109.622 97.1228 109.259C97.4276 108.962 97.836 108.796 98.2613 108.796H100.228C100.968 108.796 101.391 109.64 100.948 110.233C100.781 110.456 100.513 110.589 100.234 110.593C98.8847 110.612 97.696 110.624 96.6406 110.622C96.6658 110.834 96.7328 111.043 96.8432 111.236Z" fill="#72351C"/>
<defs>
<filter id="filter0_dd_152_432" x="5.07812" y="0.30835" width="13.052" height="13.0605" filterUnits="userSpaceOnUse" color-interpolation-filters="sRGB">
<feFlood flood-opacity="0" result="BackgroundImageFix"/>
<feColorMatrix in="SourceAlpha" type="matrix" values="0 0 0 0 0 0 0 0 0 0 0 0 0 0 0 0 0 0 127 0" result="hardAlpha"/>
<feOffset dx="1" dy="1"/>
<feGaussianBlur stdDeviation="1"/>
<feComposite in2="hardAlpha" operator="out"/>
<feColorMatrix type="matrix" values="0 0 0 0 0 0 0 0 0 0 0 0 0 0 0 0 0 0 0.3 0"/>
<feBlend mode="normal" in2="BackgroundImageFix" result="effect1_dropShadow_152_432"/>
<feColorMatrix in="SourceAlpha" type="matrix" values="0 0 0 0 0 0 0 0 0 0 0 0 0 0 0 0 0 0 127 0" result="hardAlpha"/>
<feOffset dx="-1" dy="-1"/>
<feGaussianBlur stdDeviation="1.5"/>
<feComposite in2="hardAlpha" operator="out"/>
<feColorMatrix type="matrix" values="0 0 0 0 1 0 0 0 0 1 0 0 0 0 1 0 0 0 0.2 0"/>
<feBlend mode="normal" in2="effect1_dropShadow_152_432" result="effect2_dropShadow_152_432"/>
<feBlend mode="normal" in="SourceGraphic" in2="effect2_dropShadow_152_432" result="shape"/>
</filter>
<filter id="filter1_dd_152_432" x="15.9712" y="0.30835" width="13.052" height="13.0605" filterUnits="userSpaceOnUse" color-interpolation-filters="sRGB">
<feFlood flood-opacity="0" result="BackgroundImageFix"/>
<feColorMatrix in="SourceAlpha" type="matrix" values="0 0 0 0 0 0 0 0 0 0 0 0 0 0 0 0 0 0 127 0" result="hardAlpha"/>
<feOffset dx="1" dy="1"/>
<feGaussianBlur stdDeviation="1"/>
<feComposite in2="hardAlpha" operator="out"/>
<feColorMatrix type="matrix" values="0 0 0 0 0 0 0 0 0 0 0 0 0 0 0 0 0 0 0.3 0"/>
<feBlend mode="normal" in2="BackgroundImageFix" result="effect1_dropShadow_152_432"/>
<feColorMatrix in="SourceAlpha" type="matrix" values="0 0 0 0 0 0 0 0 0 0 0 0 0 0 0 0 0 0 127 0" result="hardAlpha"/>
<feOffset dx="-1" dy="-1"/>
<feGaussianBlur stdDeviation="1.5"/>
<feComposite in2="hardAlpha" operator="out"/>
<feColorMatrix type="matrix" values="0 0 0 0 1 0 0 0 0 1 0 0 0 0 1 0 0 0 0.2 0"/>
<feBlend mode="normal" in2="effect1_dropShadow_152_432" result="effect2_dropShadow_152_432"/>
<feBlend mode="normal" in="SourceGraphic" in2="effect2_dropShadow_152_432" result="shape"/>
</filter>
<filter id="filter2_dd_152_432" x="27.47" y="0.30835" width="13.052" height="13.0605" filterUnits="userSpaceOnUse" color-interpolation-filters="sRGB">
<feFlood flood-opacity="0" result="BackgroundImageFix"/>
<feColorMatrix in="SourceAlpha" type="matrix" values="0 0 0 0 0 0 0 0 0 0 0 0 0 0 0 0 0 0 127 0" result="hardAlpha"/>
<feOffset dx="1" dy="1"/>
<feGaussianBlur stdDeviation="1"/>
<feComposite in2="hardAlpha" operator="out"/>
<feColorMatrix type="matrix" values="0 0 0 0 0 0 0 0 0 0 0 0 0 0 0 0 0 0 0.3 0"/>
<feBlend mode="normal" in2="BackgroundImageFix" result="effect1_dropShadow_152_432"/>
<feColorMatrix in="SourceAlpha" type="matrix" values="0 0 0 0 0 0 0 0 0 0 0 0 0 0 0 0 0 0 127 0" result="hardAlpha"/>
<feOffset dx="-1" dy="-1"/>
<feGaussianBlur stdDeviation="1.5"/>
<feComposite in2="hardAlpha" operator="out"/>
<feColorMatrix type="matrix" values="0 0 0 0 1 0 0 0 0 1 0 0 0 0 1 0 0 0 0.2 0"/>
<feBlend mode="normal" in2="effect1_dropShadow_152_432" result="effect2_dropShadow_152_432"/>
<feBlend mode="normal" in="SourceGraphic" in2="effect2_dropShadow_152_432" result="shape"/>
</filter>
</defs>
</svg>
