<svg width="581" height="350" viewBox="0 0 581 350" fill="none" xmlns="http://www.w3.org/2000/svg">
<g clip-path="url(#clip0_152_686)">
<g filter="url(#filter0_dii_152_686)">
<path d="M479.698 199.796L474.717 198.935C474.239 198.851 473.764 198.749 473.287 198.662C481.172 193.766 487.158 186.332 490.261 177.582C493.364 168.832 493.4 159.286 490.362 150.513C487.325 141.74 481.395 134.261 473.546 129.306C465.698 124.35 456.398 122.213 447.174 123.244L453.704 138.788L438.234 125.275C438.197 125.284 438.162 125.296 438.128 125.31C433.062 127.095 428.397 129.861 424.399 133.449C420.402 137.038 417.15 141.379 414.83 146.225C412.509 151.07 411.166 156.326 410.876 161.691C410.585 167.056 411.355 172.426 413.139 177.494C413.398 178.231 413.706 178.935 414.002 179.647C409.634 177.452 405.445 174.896 402.028 171.624C395.111 164.993 391.321 155.843 387.086 144.57C378.695 122.23 370.617 99.5673 362.861 76.8551C371.415 72.2242 378.039 64.6938 381.542 55.6165C385.045 46.5392 385.198 36.5098 381.973 27.3298C381.558 26.1487 381.076 25.0114 380.566 23.8945C380.438 23.615 380.31 23.3372 380.176 23.0617C379.658 21.9909 379.11 20.9417 378.509 19.9348C378.411 19.7697 378.301 19.6152 378.201 19.4519C377.678 18.6029 377.126 17.7791 376.546 16.9804C376.33 16.6805 376.115 16.3814 375.891 16.0887C375.234 15.2286 374.553 14.3918 373.835 13.5929C373.595 13.3256 373.341 13.0758 373.095 12.8154C372.543 12.2332 371.976 11.6685 371.394 11.1215C371.088 10.8335 370.784 10.5434 370.469 10.2656C370.389 10.1943 370.313 10.1165 370.232 10.0459C370.228 10.0511 370.225 10.0567 370.221 10.0618C363.017 3.78156 353.841 0.22501 344.288 0.0103203C334.734 -0.204369 325.408 2.93636 317.929 8.88666L326.426 29.1143L311.132 15.7615C305.779 22.5835 302.745 30.9381 302.473 39.6063C302.202 48.2746 304.705 56.803 309.62 63.9474C309.606 63.9524 309.591 63.9562 309.577 63.9612C309.744 64.2067 309.934 64.4314 310.106 64.6726C310.428 65.1252 310.758 65.5697 311.096 66.0062C311.531 66.5659 311.982 67.1069 312.443 67.6405C312.79 68.0433 313.133 68.4494 313.495 68.8368C314.025 69.4036 314.58 69.9402 315.138 70.4739C315.464 70.7851 315.776 71.1122 316.111 71.412C316.991 72.1976 317.9 72.9431 318.84 73.6484C319.17 73.8954 319.518 74.1133 319.854 74.3498C320.514 74.8142 321.177 75.2718 321.863 75.6956C322.288 75.9585 322.724 76.1987 323.158 76.4458C323.786 76.8038 324.419 77.1506 325.065 77.4746C325.523 77.7043 325.984 77.9223 326.451 78.1347C327.114 78.4371 327.785 78.7176 328.464 78.9845C328.919 79.1634 329.372 79.3446 329.834 79.5073C330.596 79.7757 331.369 80.0089 332.146 80.2321C332.539 80.345 332.925 80.474 333.321 80.5751C334.487 80.8727 335.667 81.126 336.86 81.3201C337.084 81.3567 337.313 81.3705 337.538 81.4033C338.527 81.5473 339.521 81.6634 340.523 81.7344C340.954 81.7648 341.387 81.7691 341.82 81.786C342.63 81.8175 343.441 81.8336 344.256 81.8161C344.731 81.806 345.207 81.7815 345.683 81.7546C346.477 81.7096 347.272 81.6405 348.067 81.5471C348.537 81.4926 349.006 81.4385 349.477 81.3672C350.329 81.2379 351.18 81.0688 352.031 80.8836C352.087 80.8714 352.143 80.8641 352.199 80.8517C355.472 90.4337 358.807 99.9951 362.201 109.536C358.061 105.811 353.203 102.972 347.927 101.193C342.65 99.4144 337.065 98.7327 331.516 99.1903C325.966 99.648 320.569 101.235 315.655 103.855C310.74 106.474 306.413 110.07 302.938 114.423L317.078 130.066L297.933 122.421C293.283 132.176 292.695 143.379 296.297 153.568C297.545 157.148 299.294 160.533 301.492 163.622C306.222 170.315 312.854 175.432 320.526 178.309C328.199 181.186 336.558 181.69 344.521 179.756C352.483 177.822 359.681 173.539 365.18 167.462C370.68 161.386 374.227 153.797 375.362 145.679C375.722 146.64 376.07 147.614 376.43 148.574C380.168 158.519 384.817 170.896 394.155 179.845C400.485 185.91 408.272 189.758 415.744 193.011C420.609 195.129 425.539 197.088 430.534 198.886C436.087 202.254 442.36 204.254 448.837 204.722C456.718 206.912 464.698 208.74 472.754 210.152L477.776 211.018C482.29 211.791 486.919 212.588 491.512 213.505C490.851 213.702 490.188 213.889 489.53 214.12C481.346 217.002 474.288 222.413 469.379 229.57C464.47 236.728 461.962 245.261 462.219 253.938L493.707 263.607L465.214 268.133C467.821 274.541 472.008 280.184 477.386 284.534C482.763 288.884 489.155 291.8 495.964 293.009C502.774 294.218 509.778 293.68 516.324 291.447C522.869 289.213 528.742 285.357 533.393 280.237C533.104 281.207 532.814 282.175 532.522 283.141C531.944 285.061 531.37 286.971 530.819 288.862C523.321 314.635 526.548 334.908 539.906 345.945L547.155 337.167C534.153 326.423 538.187 304.285 541.746 292.042C542.287 290.185 542.852 288.309 543.42 286.423C548.304 270.194 553.84 251.799 546.67 234.895C535.864 209.417 504.722 204.083 479.698 199.796Z" fill="#30FF9C"/>
</g>
<path d="M194.963 349.26H415.585C422.819 349.26 429.758 346.385 434.874 341.267C439.99 336.15 442.864 329.209 442.864 321.971V220.855C442.864 219.387 442.565 217.934 441.985 216.585C441.405 215.236 440.557 214.019 439.491 213.009L322.584 102.149C317.91 97.7164 311.714 95.2458 305.274 95.2458C298.834 95.2458 292.638 97.7164 287.964 102.149L176.499 207.848C173.715 210.489 171.497 213.669 169.982 217.195C168.466 220.721 167.684 224.519 167.684 228.357V321.971C167.684 325.555 168.39 329.103 169.761 332.414C171.132 335.725 173.141 338.733 175.674 341.267C178.207 343.801 181.215 345.812 184.524 347.183C187.834 348.554 191.381 349.26 194.963 349.26V349.26Z" fill="#3F3D56"/>
<path opacity="0.1" d="M442.863 222.515H169.978V332.782C169.978 337.152 171.713 341.344 174.802 344.434C177.891 347.524 182.081 349.26 186.449 349.26H426.391C430.76 349.26 434.95 347.524 438.039 344.434C441.128 341.344 442.863 337.152 442.863 332.782V222.515V222.515Z" fill="black"/>
<path opacity="0.1" d="M204.088 227.075V338.651H407.033V227.075L305.561 276.139L204.088 227.075Z" fill="black"/>
<g filter="url(#filter1_ii_152_686)">
<path d="M392.284 191.551H219.358C211.069 191.551 204.349 196.412 204.349 202.409V327.51C204.349 333.507 211.069 338.368 219.358 338.368H392.284C400.573 338.368 407.293 333.507 407.293 327.51V202.409C407.293 196.412 400.573 191.551 392.284 191.551Z" fill="#6B6E9D"/>
</g>
<path d="M278.85 203.595H222.094V211.624H278.85V203.595Z" fill="#F2F2F2"/>
<path d="M386.055 232.843H217.508V237.431H386.055V232.843Z" fill="#F2F2F2"/>
<path d="M386.055 248.328H217.508V252.916H386.055V248.328Z" fill="#F2F2F2"/>
<path d="M386.055 263.813H217.508V268.401H386.055V263.813Z" fill="#F2F2F2"/>
<path d="M305.561 282.447L435.579 219.581C436.383 219.192 437.273 219.014 438.165 219.063C439.057 219.112 439.922 219.387 440.678 219.862C441.435 220.337 442.059 220.996 442.491 221.778C442.923 222.56 443.15 223.439 443.15 224.332V332.495C443.15 334.659 442.724 336.802 441.896 338.801C441.069 340.801 439.855 342.617 438.326 344.147C436.796 345.677 434.98 346.891 432.982 347.719C430.983 348.547 428.841 348.974 426.678 348.974H184.443C182.28 348.974 180.138 348.547 178.14 347.719C176.141 346.891 174.325 345.677 172.796 344.147C171.266 342.617 170.053 340.801 169.225 338.801C168.397 336.802 167.971 334.659 167.971 332.495V226.185C167.971 225.095 168.248 224.022 168.776 223.068C169.303 222.114 170.064 221.31 170.987 220.73C171.911 220.151 172.966 219.815 174.054 219.755C175.143 219.695 176.228 219.913 177.21 220.387L305.561 282.447Z" fill="#3F3D56"/>
<path d="M546.056 348.974H73.665" stroke="#3F3D56" stroke-miterlimit="10"/>
<path d="M581 278.353C581 312.167 559.795 339.529 533.589 339.529Z" fill="#3F3D56"/>
<path d="M533.589 339.529C533.589 305.335 509.926 277.666 480.682 277.666Z" fill="#373649"/>
<path d="M563.822 281.418C563.822 313.538 550.3 339.529 533.589 339.529Z" fill="#30FF9C"/>
<path d="M533.589 339.529C533.589 295.837 506.238 260.481 472.436 260.481Z" fill="#30FF9C"/>
<path d="M543.563 339.96C543.563 339.96 536.84 339.753 534.813 338.31C532.787 336.866 524.471 335.143 523.968 337.458C523.465 339.773 513.864 348.971 521.455 349.032C529.046 349.094 539.093 347.85 541.115 346.617C543.137 345.385 543.563 339.96 543.563 339.96Z" fill="#2EFFFF"/>
<path opacity="0.2" d="M521.319 348.227C528.91 348.288 538.957 347.044 540.979 345.811C542.52 344.873 543.133 341.505 543.339 339.951C543.481 339.958 543.563 339.96 543.563 339.96C543.563 339.96 543.137 345.385 541.115 346.617C539.093 347.85 529.045 349.094 521.455 349.033C519.263 349.015 518.507 348.235 518.548 347.08C518.852 347.778 519.688 348.214 521.319 348.227Z" fill="black"/>
<path d="M168.396 93.3499C168.741 96.4208 171.082 98.8945 171.949 101.86C173.255 106.324 170.997 111.114 167.909 114.591C165.417 117.366 162.399 119.62 159.03 121.22C155.661 122.82 152.008 123.735 148.283 123.913C147.189 124.009 146.086 123.889 145.038 123.559C144.102 123.182 143.26 122.607 142.569 121.871C140.243 119.535 138.995 116.298 138.497 113.038C138 109.778 138.193 106.458 138.388 103.166C138.387 102.485 138.51 101.811 138.752 101.175C139.069 100.569 139.505 100.033 140.033 99.5991C141.708 98.0623 143.552 96.7219 145.531 95.6038C146.425 95.2029 147.214 94.5991 147.835 93.8403C148.209 93.1903 148.451 92.4728 148.547 91.7291L149.154 88.6328C149.263 87.7405 149.567 86.8833 150.046 86.1229C151.119 84.6749 153.172 84.4778 154.972 84.4072L161.568 84.1484C163.619 84.0678 166.323 83.4793 168.326 83.8824C170.196 84.2588 169.575 85.9829 169.235 87.5528C168.742 89.4483 168.461 91.3925 168.396 93.3499V93.3499Z" fill="#FDA57D"/>
<path opacity="0.1" d="M168.396 93.3499C168.741 96.4208 171.082 98.8945 171.949 101.86C173.255 106.324 170.997 111.114 167.909 114.591C165.417 117.366 162.399 119.62 159.03 121.22C155.661 122.82 152.008 123.735 148.283 123.913C147.189 124.009 146.086 123.889 145.038 123.559C144.102 123.182 143.26 122.607 142.569 121.871C140.243 119.535 138.995 116.298 138.497 113.038C138 109.778 138.193 106.458 138.388 103.166C138.387 102.485 138.51 101.811 138.752 101.175C139.069 100.569 139.505 100.033 140.033 99.5991C141.708 98.0623 143.552 96.7219 145.531 95.6038C146.425 95.2029 147.214 94.5991 147.835 93.8403C148.209 93.1903 148.451 92.4728 148.547 91.7291L149.154 88.6328C149.263 87.7405 149.567 86.8833 150.046 86.1229C151.119 84.6749 153.172 84.4778 154.972 84.4072L161.568 84.1484C163.619 84.0678 166.323 83.4793 168.326 83.8824C170.196 84.2588 169.575 85.9829 169.235 87.5528C168.742 89.4483 168.461 91.3925 168.396 93.3499V93.3499Z" fill="black"/>
<path d="M126.438 231.571C127.372 241.821 128.307 252.069 129.241 262.316C129.973 270.38 130.719 278.477 132.153 286.437C132.649 289.18 133.229 291.909 133.918 294.614C135.834 302.125 138.614 309.467 139.511 317.167C139.539 317.389 139.563 317.616 139.586 317.842C139.687 319.545 140.009 321.227 140.544 322.847C140.993 324.022 141.682 325.094 142.168 326.256C143.135 328.578 143.263 331.147 143.381 333.663C146.784 331.749 150.51 330.475 154.372 329.905C156.237 329.626 158.313 329.428 159.583 328.035C160.989 326.496 160.833 324.14 160.597 322.073C159.857 315.652 159.117 309.234 158.379 302.819C158.139 300.06 157.67 297.324 156.978 294.642C156.723 293.75 156.416 292.872 156.105 291.994C155.675 290.785 155.241 289.576 154.915 288.335C154.446 286.328 154.118 284.292 153.934 282.239C153.174 275.781 152.258 269.336 151.456 262.882L151.413 262.542C150.21 252.76 149.294 242.93 149.559 233.077C149.596 231.618 149.658 230.159 149.752 228.696C149.884 226.576 150.078 225.452 148.322 224.126C146.382 222.662 143.829 221.638 141.611 220.679C140.417 220.16 127.269 215.49 126.962 216.515C126.345 218.7 126.021 220.958 125.999 223.229C125.99 226.015 126.136 228.801 126.438 231.571Z" fill="#434255"/>
<path opacity="0.1" d="M132.153 286.437C132.649 289.18 133.229 291.908 133.918 294.614C135.834 302.125 138.614 309.467 139.511 317.167C139.539 317.389 139.563 317.616 139.586 317.842C145.448 309.467 150.385 300.459 156.104 291.993C155.675 290.785 155.241 289.576 154.915 288.334C154.446 286.328 154.118 284.292 153.934 282.239C153.174 275.781 152.258 269.336 151.456 262.882L151.413 262.542C151.078 263.913 150.598 265.243 149.983 266.513C146.142 274.322 137.014 278.269 132.55 285.743C132.413 285.974 132.281 286.205 132.153 286.437Z" fill="black"/>
<path d="M179.716 217.771C179.523 224.034 178.52 230.241 177.52 236.426L175.457 249.189C174.327 256.174 173.151 263.301 169.847 269.558C167.375 274.238 163.814 278.231 160.592 282.43C152.672 292.752 146.722 304.445 139.212 315.07C137.029 318.158 133.909 321.498 130.183 320.853C127.738 320.43 125.962 318.393 124.04 316.823C121.775 314.972 119.044 313.617 117.261 311.297C115.478 308.976 115.128 305.12 117.544 303.468C118.418 302.984 119.346 302.604 120.309 302.337C124.053 300.912 126.477 297.254 128.019 293.555C129.561 289.857 130.495 285.88 132.55 282.439C137.014 274.966 146.143 271.019 149.986 263.207C152.138 258.832 152.343 253.789 152.507 248.916L152.927 236.492C152.973 235.134 153.008 233.721 152.456 232.479C150.987 229.172 146.549 228.864 142.955 228.444C138.877 227.966 134.926 226.719 131.312 224.769C129.242 223.651 127.22 222.226 126.113 220.15C125.103 218.256 124.963 216.034 124.845 213.891L123.6 191.376C123.493 189.439 123.396 187.436 124.078 185.621C125.792 181.061 131.547 179.571 136.412 179.788C145.464 180.193 153.821 184.089 162.356 186.719C164.47 187.386 166.616 187.946 168.787 188.397C170.702 188.782 173.021 188.622 174.848 189.238C178.097 190.334 178.014 197.442 178.475 200.391C179.426 206.133 179.842 211.951 179.716 217.771V217.771Z" fill="#434255"/>
<path d="M131.413 321.797C130.614 322.602 130.353 323.782 130.145 324.897C128.992 331.081 128.393 337.355 128.353 343.646C128.407 344.233 128.29 344.823 128.016 345.345C127.791 345.656 127.487 345.901 127.134 346.054C124.827 347.154 122.15 345.621 120.227 343.936C116.663 340.813 113.648 336.621 113.445 331.886C113.483 330.666 113.44 329.446 113.318 328.232C113.005 326.449 111.964 324.896 111.047 323.335C109.487 320.679 108.228 317.857 107.295 314.921C106.944 313.818 106.711 312.429 107.575 311.659C107.882 311.419 108.23 311.238 108.602 311.125L119.024 307.254C119.927 306.919 122.174 312.693 122.531 313.325C123.403 314.869 124.271 315.746 126.021 316.102C127.808 316.466 129.935 315.944 131.602 316.836C134.422 318.344 133.009 320.186 131.413 321.797Z" fill="#30FF9C"/>
<path d="M147.493 325.36C147.687 324.975 147.957 324.633 148.286 324.354C148.769 324.048 149.318 323.862 149.887 323.81C151.871 323.473 154.222 323.252 155.592 324.727C156.875 326.11 156.655 328.363 157.728 329.915C158.068 330.407 158.528 330.812 158.823 331.331C159.188 332.126 159.353 332.998 159.303 333.872C159.358 336.278 159.414 338.688 159.248 341.088C159.108 343.1 158.769 345.209 157.512 346.785C155.493 349.314 151.852 349.678 148.621 349.842L146.004 349.975C145.283 350.063 144.552 349.996 143.859 349.779C143.43 349.58 143.045 349.298 142.727 348.948C142.41 348.598 142.165 348.188 142.009 347.742C140.646 344.355 142.804 340.705 144.133 337.305C145.66 333.396 145.386 329.056 147.493 325.36Z" fill="#30FF9C"/>
<path d="M157.795 109.928C158.299 108.482 159.251 107.235 160.511 106.367C161.772 105.5 163.276 105.056 164.806 105.101C165.243 105.183 165.696 105.125 166.099 104.937C166.327 104.762 166.51 104.534 166.631 104.273C167.535 102.647 168.261 100.928 168.798 99.1465C169.035 98.3593 169.36 97.4313 170.156 97.2266C170.485 97.1835 170.82 97.2307 171.125 97.3634C171.43 97.496 171.693 97.709 171.886 97.9796C172.264 98.5243 172.677 99.0438 173.123 99.5347C174.993 101.207 178.307 99.6828 180.292 101.217C180.616 101.468 180.883 101.789 181.224 102.017C181.564 102.222 181.932 102.38 182.315 102.485C186.147 103.736 189.904 105.208 193.567 106.893C192.247 114.846 190.894 122.937 187.8 130.381C186.327 133.923 184.659 137.393 183.479 141.043C180.867 149.132 180.751 157.786 180.722 166.286C180.702 172.104 180.731 178.046 182.612 183.551C183.118 184.767 183.475 186.041 183.675 187.343C183.788 188.655 183.407 190.101 182.344 190.879C181.728 191.282 181.024 191.529 180.291 191.6C177.031 192.078 173.744 191.211 170.534 190.467C161.93 188.473 153.155 187.333 144.397 186.195L129.72 184.289C128.668 184.217 127.639 183.951 126.684 183.504C123.998 182.033 123.744 177.992 125.411 175.423C126.211 174.192 127.339 173.181 128.011 171.876C128.682 170.57 128.74 168.744 127.583 167.84C125.231 166.001 125.932 162.588 125.82 159.603C125.506 151.257 125.549 142.908 125.948 134.556C126.065 132.827 126.093 131.093 126.03 129.361C125.77 126.426 125.228 123.523 124.412 120.692L119.952 103.127C121.117 101.285 123.348 100.117 125.461 99.5866C127.574 99.0561 129.775 98.9 131.856 98.2549C136.119 96.9334 139.914 93.5797 144.366 93.8923C144.703 93.8983 145.034 93.9792 145.336 94.1291C146.34 94.6982 146.181 96.1458 146.245 97.2985C146.387 99.8488 148.262 101.98 150.333 103.475C152.404 104.969 154.769 106.059 156.67 107.763C157.007 108.017 157.283 108.343 157.478 108.718C157.672 109.092 157.781 109.506 157.795 109.928V109.928Z" fill="#30FF9C"/>
<path d="M216.7 126.589C217.686 127.229 218.734 127.768 219.827 128.198C220.898 128.517 221.91 129.008 222.823 129.653C223.243 130.017 223.596 130.453 223.864 130.94C224.368 131.833 224.622 132.844 224.601 133.869C224.58 134.894 224.285 135.894 223.746 136.766C223.207 137.637 222.443 138.348 221.536 138.824C220.629 139.299 219.61 139.523 218.587 139.47C217.227 139.318 215.905 138.924 214.684 138.306L204.199 133.761C202.424 132.992 200.507 132.09 199.668 130.347C199.571 130.184 199.534 129.992 199.566 129.805C199.651 129.607 199.804 129.446 199.997 129.352C202.362 127.815 204.43 125.864 206.102 123.592C206.533 123.008 207.059 121.628 207.667 121.278C209.886 119.999 214.924 125.435 216.7 126.589Z" fill="#FDA57D"/>
<path d="M104.606 122.859L100.741 127.277C99.9108 128.225 99.0799 129.175 98.3234 130.183C96.4657 132.744 94.9755 135.552 93.8959 138.527C93.0556 140.732 92.3582 143.082 92.6518 145.424C92.8468 146.625 93.171 147.801 93.6187 148.932C94.3272 151.107 95.2055 153.224 96.2455 155.261C97.1202 156.809 98.1082 158.29 99.2015 159.693C102.195 163.661 105.47 167.408 109.001 170.906C110.323 172.215 110.877 174.331 111.452 176.1C112.513 179.363 115.038 181.905 117.48 184.315C118.265 185.143 119.132 185.89 120.068 186.543C121.471 187.446 123.11 187.913 124.778 187.885C125.509 187.89 126.232 187.74 126.9 187.445C128.571 186.651 129.42 184.719 129.594 182.876C129.75 181.205 129.47 179.521 128.781 177.99C126.563 173.074 120.867 170.944 116.84 167.357C114.479 165.254 112.673 162.612 110.893 159.998C109.683 158.367 108.673 156.596 107.885 154.724C106.985 152.324 107.336 149.482 106.55 147.042C106.218 146.011 105.627 145.08 105.27 144.057C104.913 143.034 104.823 141.82 105.448 140.934C105.919 140.372 106.52 139.932 107.198 139.652C109.771 138.346 112.651 136.666 113.144 133.822C113.34 132.245 112.928 130.653 111.992 129.369C111.059 128.103 109.969 126.96 108.748 125.969C107.623 124.974 105.731 123.854 104.606 122.859Z" fill="#FDA57D"/>
<path d="M219.182 132.755C219.865 131.376 220.718 129.969 222.095 129.283C222.763 128.993 223.483 128.842 224.211 128.839C224.939 128.835 225.66 128.981 226.33 129.265C227.666 129.841 228.916 130.598 230.047 131.513L233.379 133.97C234.134 134.466 234.803 135.083 235.357 135.797C235.883 136.663 236.233 137.624 236.387 138.625C236.968 140.908 237.145 143.275 236.911 145.62C236.382 149.379 234.117 152.66 231.623 155.522C230.065 157.31 228.141 159.114 225.772 159.19C224.749 159.223 223.611 158.82 223.185 157.889C223.038 157.519 222.96 157.126 222.954 156.729C222.698 152.536 224.198 148.441 225.946 144.622C226.504 143.622 226.833 142.511 226.911 141.368C226.923 141.176 226.873 140.985 226.768 140.823C226.617 140.666 226.416 140.568 226.199 140.546C223.806 140.072 219.685 141.932 218.006 139.273C216.918 137.55 218.409 134.318 219.182 132.755Z" fill="#FDA57D"/>
<path d="M201.509 112.123C202.109 112.51 202.636 113.001 203.065 113.572C203.61 114.397 203.721 115.437 204.189 116.308C205.191 118.17 207.534 118.833 208.996 120.361C209.228 120.571 209.39 120.848 209.458 121.154C209.465 121.568 209.326 121.972 209.065 122.295L202.016 133.382C199.668 133.588 197.417 132.117 195.068 132.312C194.192 132.385 193.295 132.688 192.454 132.429C191.852 132.162 191.288 131.817 190.776 131.403C189.375 130.516 187.509 130.413 186.334 129.244C185.206 128.122 185.062 126.367 185.075 124.775C185.057 123.394 185.197 122.014 185.494 120.665C186.532 116.409 189.786 113.143 191.825 109.374C192.818 107.539 193.359 106.464 195.46 107.724C197.573 108.991 199.52 110.669 201.509 112.123Z" fill="#30FF9C"/>
<path d="M115.893 106.517C114.568 107.377 113.374 108.424 112.346 109.624C111.272 111.009 110.664 112.705 109.633 114.122C108.633 115.496 107.271 116.559 106.137 117.824C104.417 119.742 103.252 122.083 102.108 124.391C104.902 128.037 107.95 131.483 111.227 134.701C111.591 135.131 112.072 135.447 112.611 135.612C112.978 135.651 113.349 135.598 113.69 135.459C114.032 135.32 114.334 135.098 114.569 134.814C115.076 134.281 115.436 133.624 115.922 133.07C117.067 131.888 118.594 131.15 120.232 130.985C121.855 130.828 123.488 130.806 125.115 130.918C125.472 130.958 125.833 130.897 126.158 130.743C126.399 130.576 126.595 130.352 126.727 130.09C128.635 126.841 128.021 122.761 127.348 119.054L125.803 110.545C125.579 108.92 125.147 107.331 124.517 105.817C123.932 104.565 122.623 102.444 121.014 102.818C119.392 103.196 117.258 105.535 115.893 106.517Z" fill="#30FF9C"/>
<path d="M159.632 92.8658C148.234 92.8658 138.994 83.685 138.994 72.36C138.994 61.0349 148.234 51.8541 159.632 51.8541C171.03 51.8541 180.271 61.0349 180.271 72.36C180.271 83.685 171.03 92.8658 159.632 92.8658Z" fill="#72351C"/>
<path d="M159.632 95.4283C149.177 95.4283 140.702 86.9488 140.702 76.4889C140.702 66.0289 149.177 57.5494 159.632 57.5494C170.087 57.5494 178.562 66.0289 178.562 76.4889C178.562 86.9488 170.087 95.4283 159.632 95.4283Z" fill="#FDA57D"/>
<path d="M173.047 57.8568C172.513 56.1838 171.592 54.6649 170.359 53.4277C166.665 49.7302 160.612 48.9495 157.507 44.7335C156.762 45.9034 157.339 47.7027 158.62 48.2056C155.649 48.1861 152.198 47.9224 150.516 45.441C150.101 46.4214 149.968 47.5012 150.134 48.5548C150.3 49.6085 150.758 50.5927 151.455 51.3932C148.818 51.5144 146.004 53.3272 145.834 55.9954C145.72 57.773 146.821 59.456 148.263 60.4755C149.705 61.4949 151.449 61.9629 153.167 62.3464C158.18 63.466 176.318 68.1586 173.047 57.8568Z" fill="#72351C"/>
<path d="M140.702 76.6318H141.204L150.97 85.2843C160.379 80.8988 167.287 85.2843 167.287 85.2843L177.53 76.9874L178.562 77.1165C178.422 82.0621 176.334 86.7544 172.747 90.1804C169.16 93.6063 164.363 95.4909 159.392 95.4273C154.421 95.3636 149.675 93.3568 146.178 89.8402C142.681 86.3236 140.714 81.5793 140.702 76.6318V76.6318ZM159.664 88.6031C163.348 88.6031 166.334 87.8602 166.334 86.9437C166.334 86.0273 163.348 85.2843 159.664 85.2843C155.981 85.2843 152.995 86.0273 152.995 86.9437C152.995 87.8602 155.981 88.6031 159.664 88.6031Z" fill="#72351C"/>
<path d="M178.562 79.7642C177.619 79.7642 176.854 78.2979 176.854 76.489C176.854 74.6801 177.619 73.2137 178.562 73.2137C179.506 73.2137 180.271 74.6801 180.271 76.489C180.271 78.2979 179.506 79.7642 178.562 79.7642Z" fill="#FDA57D"/>
<path d="M140.702 79.7642C139.758 79.7642 138.994 78.2979 138.994 76.489C138.994 74.6801 139.758 73.2137 140.702 73.2137C141.645 73.2137 142.41 74.6801 142.41 76.489C142.41 78.2979 141.645 79.7642 140.702 79.7642Z" fill="#FDA57D"/>
</g>
<defs>
<filter id="filter0_dii_152_686" x="285.964" y="-8" width="268.138" height="361.945" filterUnits="userSpaceOnUse" color-interpolation-filters="sRGB">
<feFlood flood-opacity="0" result="BackgroundImageFix"/>
<feColorMatrix in="SourceAlpha" type="matrix" values="0 0 0 0 0 0 0 0 0 0 0 0 0 0 0 0 0 0 127 0" result="hardAlpha"/>
<feOffset dy="4"/>
<feGaussianBlur stdDeviation="2"/>
<feComposite in2="hardAlpha" operator="out"/>
<feColorMatrix type="matrix" values="0 0 0 0 0 0 0 0 0 0 0 0 0 0 0 0 0 0 0.25 0"/>
<feBlend mode="normal" in2="BackgroundImageFix" result="effect1_dropShadow_152_686"/>
<feBlend mode="normal" in="SourceGraphic" in2="effect1_dropShadow_152_686" result="shape"/>
<feColorMatrix in="SourceAlpha" type="matrix" values="0 0 0 0 0 0 0 0 0 0 0 0 0 0 0 0 0 0 127 0" result="hardAlpha"/>
<feOffset dx="4" dy="4"/>
<feGaussianBlur stdDeviation="4"/>
<feComposite in2="hardAlpha" operator="arithmetic" k2="-1" k3="1"/>
<feColorMatrix type="matrix" values="0 0 0 0 0 0 0 0 0 0 0 0 0 0 0 0 0 0 0.5 0"/>
<feBlend mode="normal" in2="shape" result="effect2_innerShadow_152_686"/>
<feColorMatrix in="SourceAlpha" type="matrix" values="0 0 0 0 0 0 0 0 0 0 0 0 0 0 0 0 0 0 127 0" result="hardAlpha"/>
<feOffset dx="-8" dy="-8"/>
<feGaussianBlur stdDeviation="8"/>
<feComposite in2="hardAlpha" operator="arithmetic" k2="-1" k3="1"/>
<feColorMatrix type="matrix" values="0 0 0 0 0 0 0 0 0 0 0 0 0 0 0 0 0 0 0.6 0"/>
<feBlend mode="normal" in2="effect2_innerShadow_152_686" result="effect3_innerShadow_152_686"/>
</filter>
<filter id="filter1_ii_152_686" x="196.349" y="183.551" width="214.945" height="158.817" filterUnits="userSpaceOnUse" color-interpolation-filters="sRGB">
<feFlood flood-opacity="0" result="BackgroundImageFix"/>
<feBlend mode="normal" in="SourceGraphic" in2="BackgroundImageFix" result="shape"/>
<feColorMatrix in="SourceAlpha" type="matrix" values="0 0 0 0 0 0 0 0 0 0 0 0 0 0 0 0 0 0 127 0" result="hardAlpha"/>
<feOffset dx="4" dy="4"/>
<feGaussianBlur stdDeviation="4"/>
<feComposite in2="hardAlpha" operator="arithmetic" k2="-1" k3="1"/>
<feColorMatrix type="matrix" values="0 0 0 0 0 0 0 0 0 0 0 0 0 0 0 0 0 0 0.3 0"/>
<feBlend mode="normal" in2="shape" result="effect1_innerShadow_152_686"/>
<feColorMatrix in="SourceAlpha" type="matrix" values="0 0 0 0 0 0 0 0 0 0 0 0 0 0 0 0 0 0 127 0" result="hardAlpha"/>
<feOffset dx="-8" dy="-8"/>
<feGaussianBlur stdDeviation="8"/>
<feComposite in2="hardAlpha" operator="arithmetic" k2="-1" k3="1"/>
<feColorMatrix type="matrix" values="0 0 0 0 0 0 0 0 0 0 0 0 0 0 0 0 0 0 0.5 0"/>
<feBlend mode="normal" in2="effect1_innerShadow_152_686" result="effect2_innerShadow_152_686"/>
</filter>
<clipPath id="clip0_152_686">
<rect width="581" height="350" fill="white" transform="matrix(-1 0 0 1 581 0)"/>
</clipPath>
</defs>
</svg>
