<svg width="360" height="290" viewBox="0 0 360 290" fill="none" xmlns="http://www.w3.org/2000/svg">
<g clip-path="url(#clip0_376_2)">
<g filter="url(#filter0_ii_376_2)">
<path d="M96.4903 250.431C94.2662 258.901 86.4729 264.193 86.4729 264.193C86.4729 264.193 82.2855 255.755 84.5096 247.285C86.7336 238.816 94.5269 233.523 94.5269 233.523C94.5269 233.523 98.7143 241.962 96.4903 250.431Z" fill="#3F3D56"/>
</g>
<g filter="url(#filter1_ii_376_2)">
<path d="M93.1169 248.64C86.8877 254.794 86.1908 264.189 86.1908 264.189C86.1908 264.189 95.5934 263.606 101.823 257.451C108.052 251.297 108.749 241.902 108.749 241.902C108.749 241.902 99.3461 242.486 93.1169 248.64Z" fill="#1460B2"/>
</g>
<g filter="url(#filter2_ii_376_2)">
<path d="M100.928 261.714H76.5623C73.8896 261.714 71.723 263.88 71.723 266.553V271.361C71.723 274.034 73.8896 276.201 76.5623 276.201H100.928C103.601 276.201 105.768 274.034 105.768 271.361V266.553C105.768 263.88 103.601 261.714 100.928 261.714Z" fill="#003692"/>
</g>
<g opacity="0.7">
<path opacity="0.7" d="M335.201 252.459V247.239H309.1V271.383C309.1 272.051 309.231 272.713 309.487 273.33C309.743 273.948 310.118 274.509 310.59 274.982C311.063 275.454 311.624 275.829 312.242 276.085C312.859 276.341 313.521 276.472 314.189 276.472H330.111C331.461 276.472 332.756 275.936 333.71 274.982C334.665 274.027 335.201 272.733 335.201 271.383V266.032C336.998 266.029 338.721 265.312 339.991 264.04C341.261 262.767 341.974 261.043 341.974 259.246C341.974 257.448 341.261 255.724 339.991 254.452C338.721 253.179 336.998 252.463 335.201 252.459V252.459ZM335.201 263.422V255.07C336.308 255.07 337.371 255.51 338.154 256.293C338.937 257.076 339.377 258.138 339.377 259.246C339.377 260.353 338.937 261.416 338.154 262.199C337.371 262.982 336.308 263.422 335.201 263.422V263.422Z" fill="url(#paint0_linear_376_2)"/>
</g>
<path d="M334.361 253.276C333.135 253.276 331.938 253.64 330.919 254.321C329.9 255.001 329.105 255.969 328.637 257.101C328.168 258.234 328.045 259.479 328.284 260.681C328.523 261.883 329.113 262.987 329.98 263.854C330.846 264.72 331.95 265.311 333.152 265.55C334.354 265.789 335.6 265.666 336.732 265.197C337.864 264.728 338.832 263.934 339.513 262.915C340.194 261.896 340.557 260.698 340.557 259.473C340.557 257.829 339.904 256.253 338.742 255.091C337.58 253.929 336.004 253.276 334.361 253.276ZM334.361 263.286C333.607 263.286 332.87 263.062 332.243 262.643C331.616 262.224 331.127 261.628 330.838 260.932C330.55 260.235 330.474 259.468 330.621 258.729C330.768 257.989 331.132 257.31 331.665 256.776C332.198 256.243 332.877 255.88 333.617 255.733C334.357 255.586 335.123 255.661 335.82 255.95C336.517 256.238 337.112 256.727 337.531 257.354C337.95 257.981 338.174 258.718 338.174 259.473C338.174 260.484 337.772 261.454 337.057 262.169C336.342 262.884 335.372 263.286 334.361 263.286V263.286Z" fill="#128EA7"/>
<g opacity="0.1" filter="url(#filter3_ii_376_2)">
<path d="M334.361 253.276C333.135 253.276 331.938 253.64 330.919 254.321C329.9 255.001 329.105 255.969 328.637 257.101C328.168 258.234 328.045 259.479 328.284 260.681C328.523 261.883 329.113 262.987 329.98 263.854C330.846 264.72 331.95 265.311 333.152 265.55C334.354 265.789 335.6 265.666 336.732 265.197C337.864 264.728 338.832 263.934 339.513 262.915C340.194 261.896 340.557 260.698 340.557 259.473C340.557 257.829 339.904 256.253 338.742 255.091C337.58 253.929 336.004 253.276 334.361 253.276ZM334.361 263.286C333.607 263.286 332.87 263.062 332.243 262.643C331.616 262.224 331.127 261.628 330.838 260.932C330.55 260.235 330.474 259.468 330.621 258.729C330.768 257.989 331.132 257.31 331.665 256.776C332.198 256.243 332.877 255.88 333.617 255.733C334.357 255.586 335.123 255.661 335.82 255.95C336.517 256.238 337.112 256.727 337.531 257.354C337.95 257.981 338.174 258.718 338.174 259.473C338.174 260.484 337.772 261.454 337.057 262.169C336.342 262.884 335.372 263.286 334.361 263.286V263.286Z" fill="black"/>
</g>
<g filter="url(#filter4_ii_376_2)">
<path d="M310.53 248.51H334.361V272.097C334.361 272.92 334.034 273.71 333.452 274.292C332.869 274.874 332.08 275.201 331.256 275.201H313.634C312.811 275.201 312.021 274.874 311.439 274.292C310.857 273.71 310.53 272.92 310.53 272.097V248.51Z" fill="#003692"/>
</g>
<g filter="url(#filter5_ii_376_2)">
<path d="M357.384 275.201H52.0531C50.9485 275.201 50.0531 276.097 50.0531 277.201V283.687C50.0531 284.792 50.9485 285.687 52.0531 285.687H357.384C358.488 285.687 359.384 284.792 359.384 283.687V277.201C359.384 276.097 358.488 275.201 357.384 275.201Z" fill="#001874"/>
</g>
<g opacity="0.7">
<path opacity="0.7" d="M253.517 205.042C250.201 193.008 231.406 184.22 217.264 182.272C217.266 182.183 217.271 182.095 217.271 182.006V171.705C217.286 171.699 217.301 171.694 217.316 171.689V171.298C222.335 169.432 226.864 166.449 230.561 162.574C234.257 158.7 237.025 154.036 238.654 148.935C239.528 147.355 240.289 145.714 240.931 144.026C242.44 143.476 243.581 140.987 243.581 137.996C243.586 136.972 243.443 135.954 243.154 134.972C243.34 133.449 243.434 131.915 243.438 130.381C243.443 125.016 242.321 119.709 240.143 114.806C237.966 109.903 234.782 105.512 230.797 101.919C230.915 101.303 230.956 100.674 230.917 100.048C230.597 95.1034 225.316 91.7444 220.366 91.5197C221.674 90.0365 222.533 88.2128 222.845 86.2604C223.157 84.308 222.908 82.3072 222.128 80.4906C218.972 85.0884 212.493 85.5771 206.916 85.6133C209.322 84.6814 210.405 81.3473 209.006 79.1794C203.177 86.9916 191.815 88.4383 184.883 95.2898C183.373 96.7884 182.107 98.5147 181.132 100.406C176.627 103.995 172.99 108.554 170.491 113.744C167.992 118.934 166.697 124.621 166.701 130.381C166.704 131.901 166.797 133.421 166.979 134.931C166.682 135.925 166.534 136.958 166.54 137.996C166.54 141.001 167.691 143.498 169.211 144.032C169.855 145.726 170.619 147.372 171.498 148.957C173.121 154.029 175.87 158.668 179.539 162.527C183.209 166.386 187.703 169.365 192.686 171.242V182.006C192.686 182.089 192.691 182.17 192.692 182.253C178.497 184.168 159.551 193.024 156.265 205.155C153.428 215.631 150.399 227.135 148.891 233.89C161.809 242.967 188.915 248.297 205.903 248.297C222.043 248.297 248.423 243.486 260.96 235.221C259.602 227.799 256.478 215.789 253.517 205.042Z" fill="url(#paint1_linear_376_2)"/>
</g>
<path d="M205.868 245.308C221.438 245.308 246.886 240.668 258.98 232.695C257.67 225.535 254.656 213.95 251.8 203.582C248.162 190.378 225.203 181.223 211.506 181.223H198.308C184.569 181.223 161.577 190.431 157.985 203.691C155.247 213.797 152.325 224.895 150.872 231.411C163.333 240.167 189.481 245.308 205.868 245.308Z" fill="#1686E2"/>
<path d="M205.064 168.572C225.506 168.572 242.077 152.001 242.077 131.559C242.077 111.118 225.506 94.5469 205.064 94.5469C184.623 94.5469 168.052 111.118 168.052 131.559C168.052 152.001 184.623 168.572 205.064 168.572Z" fill="#72351C"/>
<path opacity="0.1" d="M193.119 162.387H216.835V181.36C216.835 184.505 215.585 187.521 213.361 189.745C211.138 191.969 208.122 193.218 204.977 193.218H204.977C201.832 193.218 198.816 191.969 196.592 189.745C194.368 187.521 193.119 184.505 193.119 181.36V162.387H193.119Z" fill="black"/>
<path d="M196.52 161.509H213.433C214.335 161.509 215.2 161.867 215.838 162.505C216.476 163.143 216.835 164.009 216.835 164.911V180.482C216.835 183.627 215.585 186.643 213.361 188.867C211.138 191.09 208.122 192.34 204.977 192.34H204.977C201.832 192.34 198.816 191.09 196.592 188.867C194.368 186.643 193.119 183.627 193.119 180.482V164.911C193.119 164.009 193.477 163.143 194.115 162.505C194.753 161.867 195.618 161.509 196.52 161.509V161.509Z" fill="#FDA57D"/>
<path opacity="0.1" d="M193.163 171.342C200.806 174.198 209.219 174.221 216.878 171.408V168.495H193.163V171.342Z" fill="black"/>
<path d="M205.064 172.93C223.838 172.93 239.057 157.711 239.057 138.938C239.057 120.164 223.838 104.945 205.064 104.945C186.291 104.945 171.072 120.164 171.072 138.938C171.072 157.711 186.291 172.93 205.064 172.93Z" fill="#FDA57D"/>
<path opacity="0.1" d="M180.851 108.018C180.851 108.018 195.177 137.097 235.589 120.205L226.181 105.452L209.503 99.4648L180.851 108.018Z" fill="black"/>
<path d="M180.851 107.59C180.851 107.59 195.177 136.669 235.589 119.778L226.181 105.024L209.503 99.0371L180.851 107.59Z" fill="#72351C"/>
<path d="M180.724 105.625C181.69 102.635 183.359 99.92 185.591 97.7085C192.279 91.0991 203.239 89.7036 208.861 82.1675C210.211 84.2588 209.167 87.4751 206.846 88.374C212.225 88.3391 218.475 87.8676 221.52 83.4323C222.273 85.1847 222.513 87.1148 222.212 88.9982C221.911 90.8816 221.082 92.6409 219.821 94.0717C224.595 94.2884 229.69 97.5287 229.998 102.298C230.204 105.476 228.211 108.484 225.6 110.306C222.989 112.129 219.83 112.965 216.721 113.651C207.644 115.652 174.801 124.04 180.724 105.625Z" fill="#72351C"/>
<path d="M239.056 139.235H238.155C233.572 147.74 230.311 151.774 220.622 154.844C203.73 146.933 191.328 154.844 191.328 154.844C183.13 153.924 179.15 150.42 172.94 139.877L171.086 140.11C171.337 149.031 175.087 157.496 181.527 163.676C187.966 169.856 196.577 173.256 205.502 173.141C214.426 173.027 222.947 169.406 229.225 163.063C235.503 156.719 239.034 148.16 239.056 139.235ZM205.013 160.831C198.4 160.831 193.039 159.491 193.039 157.837C193.039 156.184 198.4 154.844 205.013 154.844C211.626 154.844 216.987 156.184 216.987 157.837C216.987 159.491 211.626 160.831 205.013 160.831Z" fill="#72351C"/>
<path d="M171.058 144.834C172.805 144.834 174.22 142.18 174.22 138.905C174.22 135.631 172.805 132.976 171.058 132.976C169.312 132.976 167.896 135.631 167.896 138.905C167.896 142.18 169.312 144.834 171.058 144.834Z" fill="#FDA57D"/>
<path d="M239.053 144.834C240.799 144.834 242.215 142.18 242.215 138.905C242.215 135.631 240.799 132.976 239.053 132.976C237.306 132.976 235.891 135.631 235.891 138.905C235.891 142.18 237.306 144.834 239.053 144.834Z" fill="#FDA57D"/>
<g opacity="0.7">
<path opacity="0.7" d="M265.876 199.45H143.561C141.011 199.45 138.944 201.517 138.944 204.067V270.584C138.944 273.134 141.011 275.201 143.561 275.201H265.876C268.426 275.201 270.493 273.134 270.493 270.584V204.067C270.493 201.517 268.426 199.45 265.876 199.45Z" fill="url(#paint2_linear_376_2)"/>
</g>
<g filter="url(#filter6_dii_376_2)">
<path d="M259.565 200.848H149.872C145.153 200.848 141.327 204.673 141.327 209.393V266.656C141.327 271.376 145.153 275.201 149.872 275.201H259.565C264.284 275.201 268.11 271.376 268.11 266.656V209.393C268.11 204.673 264.284 200.848 259.565 200.848Z" fill="#535461"/>
</g>
<path d="M204.718 242.314C207.088 242.314 209.008 240.394 209.008 238.024C209.008 235.655 207.088 233.735 204.718 233.735C202.349 233.735 200.429 235.655 200.429 238.024C200.429 240.394 202.349 242.314 204.718 242.314Z" fill="white"/>
<path d="M345.277 285.687H64.1604C63.6081 285.687 63.1604 286.135 63.1604 286.687V288.977C63.1604 289.529 63.6081 289.977 64.1604 289.977H345.277C345.829 289.977 346.277 289.529 346.277 288.977V286.687C346.277 286.135 345.829 285.687 345.277 285.687Z" fill="#001874"/>
<path opacity="0.1" d="M345.562 285.687H63.8753C63.4805 285.687 63.1604 286.007 63.1604 286.402C63.1604 286.797 63.4805 287.117 63.8753 287.117H345.562C345.957 287.117 346.277 286.797 346.277 286.402C346.277 286.007 345.957 285.687 345.562 285.687Z" fill="black"/>
<g filter="url(#filter7_ii_376_2)">
<path d="M315.232 230.743C314.83 230.812 314.377 230.921 314.18 231.278C313.867 231.844 314.434 232.483 314.951 232.873C315.906 233.592 316.912 234.299 317.562 235.303C318.211 236.307 318.415 237.708 317.705 238.67C316.778 239.927 314.568 240.197 314.354 241.744C314.217 242.737 315.075 243.584 315.945 244.082C318.091 245.312 320.858 245.64 322.413 247.564C323.057 246.241 324.495 245.477 325.929 245.15C327.364 244.824 328.854 244.848 330.308 244.626C330.777 244.555 331.306 244.412 331.515 243.986C331.922 243.161 330.764 242.172 331.163 241.343C331.468 240.713 332.362 240.762 333.014 240.51C334.077 240.099 334.516 238.731 334.214 237.632C333.912 236.533 333.06 235.674 332.164 234.97C329.749 233.072 326.845 231.956 323.908 231.153C322.542 230.78 320.939 230.195 319.52 230.138C318.15 230.083 316.588 230.511 315.232 230.743Z" fill="#EEEEEE"/>
</g>
<path d="M328.089 143.062L310.291 138.126L306.326 93.6421H349.906L345.936 138.12L328.089 143.062Z" fill="#264DE4"/>
<path d="M342.537 135.289L345.93 97.2815H328.119V139.278L342.537 135.289Z" fill="#2965F1"/>
<path d="M315.428 113.772L315.918 119.227H328.128V113.772H315.428ZM314.446 102.73L314.941 108.185H328.126V102.73H314.435H314.446ZM328.126 127.942H328.102L322.025 126.3L321.637 121.948H316.149L316.913 130.515L328.089 133.624H328.115L328.126 127.942Z" fill="#EBEBEB"/>
<path d="M316.583 81.5479H323.19V84.3117H319.345V87.0756H323.19V89.8395H316.583V81.5479ZM324.523 81.5479H331.13V83.9512H327.276V84.4319H331.121V89.9597H324.512V87.4361H328.358V86.9555H324.512V81.5479H324.523ZM332.463 81.5479H339.07V83.9512H335.205V84.4319H339.05V89.9597H332.441V87.4361H336.287V86.9555H332.441V81.5479H332.463Z" fill="white"/>
<path d="M340.78 113.772L341.765 102.73H328.089V108.185H335.778L335.282 113.764H328.089V119.219H334.808L334.164 126.3L328.089 127.946V133.622L339.274 130.521L339.355 129.598L340.643 115.234L340.776 113.768L340.78 113.772Z" fill="white"/>
</g>
<path d="M305.378 15.2966L300.588 68.9557L279.055 74.9283L257.582 68.9557L252.797 15.2966H305.378Z" fill="#E44D26"/>
<path d="M279.086 70.3639L296.485 65.5418L300.572 19.6848H279.086V70.3639Z" fill="#F16529"/>
<path d="M269.775 32.8498H279.086V26.2673H262.583L262.74 28.034L264.359 46.1718H279.089V39.5894H270.379L269.775 32.8498ZM271.272 49.463H264.67L265.591 59.7988L279.058 63.5521H279.089V56.6836H279.061L271.731 54.7032L271.272 49.463Z" fill="#EBEBEB"/>
<path d="M257.692 0.710938H261.036V4.01473H264.095V0.710938H267.44V10.7198H264.095V7.36881H261.036V10.7198H257.692V0.710938ZM271.837 4.03045H268.892V0.710938H278.128V4.03045H275.182V10.7198H271.841V4.03045H271.837ZM279.596 0.710938H283.085L285.232 4.22849L287.376 0.710938H290.865V10.7198H287.533V5.75936L285.232 9.31777H285.175L282.871 5.75936V10.7198H279.596V0.710938ZM292.528 0.710938H295.872V7.40968H300.588V10.7166H292.537V0.710938H292.528Z" fill="white"/>
<path d="M279.064 46.1718H287.168L286.404 54.7095L279.064 56.6898V63.552L292.559 59.8113L292.657 58.6985L294.203 41.3685L294.364 39.6019H279.064V46.1844V46.1718ZM279.064 32.834V32.8497H294.964L295.096 31.3692L295.41 28.0308L295.568 26.2642H279.064V32.8309V32.834Z" fill="white"/>
<path d="M131.53 1.65869H193.66V63.7847H131.53V1.65869Z" fill="#F7DF1E"/>
<path d="M147.869 53.5759L152.624 50.698C153.542 52.3247 154.376 53.701 156.378 53.701C158.297 53.701 159.506 52.9503 159.506 50.0323V30.1798H165.344V50.1125C165.344 56.1587 161.803 58.9114 156.628 58.9114C151.958 58.9114 149.248 56.4916 147.871 53.5735L147.869 53.5759ZM168.515 52.9479L173.267 50.1952C174.518 52.2397 176.145 53.7364 179.023 53.7364C181.443 53.7364 182.985 52.5277 182.985 50.8586C182.985 48.8566 181.4 48.1483 178.735 46.9797L177.276 46.354C173.064 44.5622 170.269 42.3099 170.269 37.5551C170.269 33.1757 173.605 29.8398 178.818 29.8398C182.529 29.8398 185.192 31.1336 187.116 34.5096L182.571 37.43C181.57 35.6357 180.487 34.9275 178.818 34.9275C177.108 34.9275 176.022 36.0111 176.022 37.43C176.022 39.1818 177.106 39.89 179.609 40.9713L181.068 41.5969C186.025 43.7217 188.825 45.8913 188.825 50.7712C188.825 56.0265 184.696 58.9044 179.146 58.9044C173.716 58.9044 170.222 56.3074 168.522 52.9408" fill="black"/>
<path d="M100.784 112.398H0V113.011H100.784V112.398Z" fill="white"/>
<path d="M33.3471 90.9982H47.8828V92.1535H34.6796V100.849H47.0955V102.004H34.6796V111.551H48.0342V112.706H33.3471L33.3471 90.9982ZM49.185 90.9982H50.7294L57.5733 100.545L64.5686 90.9982L74.0834 78.8718L58.4515 101.548L66.5067 112.706H64.9017L57.5733 102.551L50.2146 112.706H48.6399L56.7557 101.548L49.185 90.9982ZM67.0821 92.1535V90.9982H83.6467V92.1535H76.0155V112.706H74.683V92.1535H67.0821ZM15.1624 90.9982H16.8279L39.7949 125.366L30.3037 112.706L16.5554 92.6399L16.4948 112.706H15.1624V90.9982ZM83.5125 111.202C83.4165 111.203 83.3224 111.176 83.2419 111.124C83.1614 111.072 83.0984 110.997 83.0607 110.909C83.023 110.82 83.0123 110.723 83.0302 110.629C83.048 110.534 83.0935 110.447 83.1609 110.379C83.2282 110.311 83.3144 110.264 83.4084 110.245C83.5024 110.226 83.5999 110.235 83.6887 110.271C83.7775 110.307 83.8534 110.369 83.9069 110.449C83.9603 110.529 83.9889 110.623 83.9889 110.719C83.9906 110.782 83.9795 110.845 83.9562 110.904C83.933 110.963 83.8981 111.017 83.8536 111.062C83.8091 111.107 83.756 111.143 83.6974 111.167C83.6387 111.191 83.5759 111.203 83.5125 111.202V111.202ZM84.8218 109.93H85.5347C85.5445 110.316 85.8264 110.576 86.2412 110.576C86.7047 110.576 86.9672 110.297 86.9672 109.774V106.464H87.6931V109.777C87.6931 110.719 87.1487 111.26 86.2477 111.26C85.4019 111.26 84.8218 110.735 84.8218 109.93V109.93ZM88.6427 109.888H89.3621C89.4237 110.332 89.858 110.615 90.4834 110.615C91.0668 110.615 91.4946 110.313 91.4946 109.898C91.4946 109.541 91.2223 109.326 90.6033 109.18L90.0006 109.034C89.1547 108.836 88.7691 108.428 88.7691 107.74C88.7691 106.906 89.4496 106.351 90.4705 106.351C91.42 106.351 92.1136 106.906 92.1557 107.694H91.4492C91.3811 107.263 91.0052 106.993 90.4607 106.993C89.8871 106.993 89.5047 107.269 89.5047 107.691C89.5047 108.025 89.751 108.217 90.3603 108.359L90.8756 108.486C91.8349 108.71 92.2302 109.099 92.2302 109.803C92.2302 110.699 91.5367 111.26 90.4283 111.26C89.3913 111.26 88.6945 110.725 88.6427 109.888V109.888Z" fill="white"/>
<path d="M59.1972 204.762C58.431 204.5 57.6587 204.256 56.8801 204.032C57.0083 203.508 57.1277 202.981 57.2381 202.451C58.9922 193.934 57.8452 187.073 53.9282 184.815C50.1721 182.649 44.0295 184.908 37.8243 190.306C37.2126 190.84 36.6152 191.389 36.032 191.951C35.6404 191.576 35.2427 191.209 34.8387 190.849C28.3381 185.076 21.8259 182.644 17.9077 184.909C14.1552 187.082 13.0418 193.531 14.6232 201.603C14.7777 202.402 14.9549 203.197 15.155 203.987C14.2339 204.249 13.343 204.528 12.4903 204.826C4.86823 207.478 0 211.649 0 215.969C0 220.43 5.22622 224.906 13.1658 227.619C13.8099 227.838 14.4587 228.041 15.1121 228.229C14.9005 229.078 14.712 229.935 14.5467 230.798C13.0406 238.73 14.2177 245.027 17.9598 247.186C21.8259 249.417 28.3138 247.123 34.6302 241.602C35.1295 241.165 35.63 240.701 36.1363 240.217C36.7681 240.827 37.4165 241.418 38.0815 241.992C44.201 247.258 50.2463 249.385 53.9838 247.219C57.8452 244.985 59.0999 238.219 57.471 229.988C57.3474 229.36 57.2034 228.718 57.0389 228.064C57.4953 227.93 57.9417 227.79 58.3781 227.646C66.6316 224.912 72.0027 220.491 72.0027 215.969C72.0027 211.632 66.9769 207.44 59.2007 204.762H59.1972Z" fill="#53C1DE"/>
<path d="M57.4072 224.726C57.0133 224.857 56.6102 224.982 56.1977 225.105C55.1914 221.985 53.9733 218.938 52.5518 215.984C53.9191 213.069 55.0899 210.067 56.0564 206.996C56.7921 207.209 57.508 207.434 58.1962 207.671C64.859 209.964 68.9232 213.355 68.9232 215.969C68.9232 218.749 64.5335 222.365 57.4072 224.726ZM54.4506 230.586C55.1712 234.225 55.2732 237.515 54.7982 240.086C54.3695 242.398 53.5076 243.938 52.4417 244.556C50.1721 245.869 45.3201 244.162 40.0869 239.659C39.4868 239.142 38.8832 238.592 38.2761 238.008C40.4579 235.592 42.4741 233.032 44.311 230.345C47.5922 230.067 50.8504 229.564 54.0625 228.839C54.2093 229.432 54.3394 230.011 54.4529 230.577L54.4506 230.586ZM24.5462 244.331C22.3287 245.114 20.5631 245.136 19.496 244.521C17.2253 243.211 16.2811 238.149 17.5694 231.372C17.7239 230.571 17.8988 229.774 18.0942 228.981C21.2931 229.668 24.5348 230.138 27.797 230.387C29.6877 233.065 31.7524 235.615 33.9779 238.022C33.5307 238.455 33.0735 238.876 32.6062 239.286C29.8129 241.728 27.0127 243.456 24.5462 244.331V244.331ZM14.1609 224.709C10.6494 223.509 7.75067 221.949 5.7626 220.248C3.97728 218.719 3.07593 217.2 3.07593 215.969C3.07593 213.347 6.98487 210.002 13.5029 207.73C14.3216 207.445 15.1476 207.185 15.981 206.951C16.9492 210.055 18.1215 213.093 19.4902 216.043C18.1044 219.035 16.9178 222.116 15.9381 225.265C15.3403 225.094 14.7479 224.909 14.1609 224.709ZM17.6424 201.012C16.2892 194.096 17.1871 188.879 19.4485 187.573C21.8572 186.182 27.183 188.166 32.7973 193.151C33.1565 193.47 33.5168 193.803 33.8771 194.147C31.6675 196.539 29.619 199.075 27.7449 201.738C24.5134 202.028 21.3041 202.527 18.1371 203.232C17.9525 202.496 17.7876 201.757 17.6424 201.013V201.012ZM48.7042 208.68C48.0006 207.465 47.2711 206.264 46.5157 205.079C48.8131 205.37 51.0132 205.755 53.0801 206.228C52.4168 208.332 51.6477 210.401 50.7757 212.427C50.1107 211.164 49.4202 209.915 48.7042 208.68ZM36.0343 196.345C37.5316 197.978 38.9456 199.684 40.2711 201.459C37.4358 201.325 34.5993 201.325 31.7616 201.459C33.16 199.615 34.5931 197.9 36.0343 196.346V196.345ZM23.2903 208.701C22.5836 209.927 21.9058 211.168 21.257 212.425C20.3615 210.301 19.5957 208.212 18.9701 206.195C21.0242 205.732 23.215 205.36 25.4973 205.074C24.7311 206.266 23.9947 207.475 23.288 208.701H23.2903ZM25.5622 227.081C23.3345 226.84 21.1207 226.483 18.9295 226.014C19.5656 223.963 20.3487 221.829 21.264 219.659C21.9151 220.917 22.5952 222.159 23.3042 223.385C24.0256 224.635 24.7775 225.867 25.5599 227.081H25.5622ZM36.1212 235.809C34.6615 234.24 33.2075 232.502 31.7894 230.624C33.1681 230.679 34.5722 230.707 36.0019 230.707C37.4694 230.707 38.918 230.674 40.3476 230.609C39.0279 232.414 37.6165 234.149 36.1189 235.809H36.1212ZM50.7989 219.549C51.7161 221.616 52.525 223.73 53.2226 225.881C51.0043 226.38 48.7613 226.763 46.503 227.027C47.2638 225.82 48.0006 224.598 48.7135 223.363C49.438 222.107 50.1331 220.835 50.7989 219.549ZM46.0488 221.826C44.9582 223.72 43.807 225.578 42.5952 227.399C40.4588 227.552 38.2518 227.631 36.0019 227.631C33.752 227.631 31.582 227.561 29.4827 227.424C28.24 225.609 27.0664 223.749 25.9619 221.844C24.8574 219.938 23.8337 218.004 22.8906 216.042C23.8383 214.07 24.859 212.135 25.9526 210.237C27.0448 208.34 28.2083 206.487 29.4433 204.676C31.5855 204.514 33.7798 204.43 35.9996 204.43C38.2194 204.43 40.4276 204.515 42.5674 204.677C43.7885 206.482 44.9471 208.329 46.043 210.216C47.139 212.104 48.1736 214.03 49.1468 215.994C48.1852 217.973 47.1537 219.915 46.0523 221.822L46.0488 221.826ZM52.3942 187.48C54.8051 188.87 55.7424 194.478 54.2282 201.831C54.1285 202.309 54.0204 202.786 53.9038 203.262C50.7321 202.543 47.5163 202.035 44.2774 201.741C42.4214 199.075 40.3882 196.538 38.1915 194.145C38.7322 193.625 39.2841 193.118 39.8471 192.626C45.1625 188 50.1304 186.174 52.3942 187.48Z" fill="white"/>
<path d="M35.9997 209.539C37.2714 209.539 38.5145 209.916 39.5719 210.622C40.6293 211.329 41.4535 212.333 41.9401 213.508C42.4268 214.683 42.5541 215.976 42.306 217.223C42.0579 218.47 41.4456 219.616 40.5463 220.515C39.6471 221.415 38.5014 222.027 37.2541 222.275C36.0068 222.523 34.7139 222.396 33.539 221.909C32.3641 221.423 31.3599 220.598 30.6533 219.541C29.9468 218.484 29.5697 217.24 29.5697 215.969C29.5696 215.124 29.7358 214.288 30.0588 213.508C30.3819 212.728 30.8555 212.019 31.4526 211.422C32.0498 210.825 32.7586 210.351 33.5388 210.028C34.319 209.705 35.1552 209.539 35.9997 209.539" fill="#53C1DE"/>
<defs>
<filter id="filter0_ii_376_2" x="81.8585" y="231.523" width="16.2828" height="33.6704" filterUnits="userSpaceOnUse" color-interpolation-filters="sRGB">
<feFlood flood-opacity="0" result="BackgroundImageFix"/>
<feBlend mode="normal" in="SourceGraphic" in2="BackgroundImageFix" result="shape"/>
<feColorMatrix in="SourceAlpha" type="matrix" values="0 0 0 0 0 0 0 0 0 0 0 0 0 0 0 0 0 0 127 0" result="hardAlpha"/>
<feOffset dx="1" dy="1"/>
<feGaussianBlur stdDeviation="1"/>
<feComposite in2="hardAlpha" operator="arithmetic" k2="-1" k3="1"/>
<feColorMatrix type="matrix" values="0 0 0 0 0 0 0 0 0 0 0 0 0 0 0 0 0 0 0.25 0"/>
<feBlend mode="normal" in2="shape" result="effect1_innerShadow_376_2"/>
<feColorMatrix in="SourceAlpha" type="matrix" values="0 0 0 0 0 0 0 0 0 0 0 0 0 0 0 0 0 0 127 0" result="hardAlpha"/>
<feOffset dx="-2" dy="-2"/>
<feGaussianBlur stdDeviation="2"/>
<feComposite in2="hardAlpha" operator="arithmetic" k2="-1" k3="1"/>
<feColorMatrix type="matrix" values="0 0 0 0 0 0 0 0 0 0 0 0 0 0 0 0 0 0 0.45 0"/>
<feBlend mode="normal" in2="effect1_innerShadow_376_2" result="effect2_innerShadow_376_2"/>
</filter>
<filter id="filter1_ii_376_2" x="84.1908" y="239.902" width="25.5579" height="25.2864" filterUnits="userSpaceOnUse" color-interpolation-filters="sRGB">
<feFlood flood-opacity="0" result="BackgroundImageFix"/>
<feBlend mode="normal" in="SourceGraphic" in2="BackgroundImageFix" result="shape"/>
<feColorMatrix in="SourceAlpha" type="matrix" values="0 0 0 0 0 0 0 0 0 0 0 0 0 0 0 0 0 0 127 0" result="hardAlpha"/>
<feOffset dx="1" dy="1"/>
<feGaussianBlur stdDeviation="1"/>
<feComposite in2="hardAlpha" operator="arithmetic" k2="-1" k3="1"/>
<feColorMatrix type="matrix" values="0 0 0 0 0 0 0 0 0 0 0 0 0 0 0 0 0 0 0.25 0"/>
<feBlend mode="normal" in2="shape" result="effect1_innerShadow_376_2"/>
<feColorMatrix in="SourceAlpha" type="matrix" values="0 0 0 0 0 0 0 0 0 0 0 0 0 0 0 0 0 0 127 0" result="hardAlpha"/>
<feOffset dx="-2" dy="-2"/>
<feGaussianBlur stdDeviation="2"/>
<feComposite in2="hardAlpha" operator="arithmetic" k2="-1" k3="1"/>
<feColorMatrix type="matrix" values="0 0 0 0 0 0 0 0 0 0 0 0 0 0 0 0 0 0 0.45 0"/>
<feBlend mode="normal" in2="effect1_innerShadow_376_2" result="effect2_innerShadow_376_2"/>
</filter>
<filter id="filter2_ii_376_2" x="69.723" y="259.714" width="37.0447" height="17.4871" filterUnits="userSpaceOnUse" color-interpolation-filters="sRGB">
<feFlood flood-opacity="0" result="BackgroundImageFix"/>
<feBlend mode="normal" in="SourceGraphic" in2="BackgroundImageFix" result="shape"/>
<feColorMatrix in="SourceAlpha" type="matrix" values="0 0 0 0 0 0 0 0 0 0 0 0 0 0 0 0 0 0 127 0" result="hardAlpha"/>
<feOffset dx="1" dy="1"/>
<feGaussianBlur stdDeviation="1"/>
<feComposite in2="hardAlpha" operator="arithmetic" k2="-1" k3="1"/>
<feColorMatrix type="matrix" values="0 0 0 0 0 0 0 0 0 0 0 0 0 0 0 0 0 0 0.25 0"/>
<feBlend mode="normal" in2="shape" result="effect1_innerShadow_376_2"/>
<feColorMatrix in="SourceAlpha" type="matrix" values="0 0 0 0 0 0 0 0 0 0 0 0 0 0 0 0 0 0 127 0" result="hardAlpha"/>
<feOffset dx="-2" dy="-2"/>
<feGaussianBlur stdDeviation="2"/>
<feComposite in2="hardAlpha" operator="arithmetic" k2="-1" k3="1"/>
<feColorMatrix type="matrix" values="0 0 0 0 0 0 0 0 0 0 0 0 0 0 0 0 0 0 0.45 0"/>
<feBlend mode="normal" in2="effect1_innerShadow_376_2" result="effect2_innerShadow_376_2"/>
</filter>
<filter id="filter3_ii_376_2" x="326.165" y="251.276" width="15.3923" height="15.3923" filterUnits="userSpaceOnUse" color-interpolation-filters="sRGB">
<feFlood flood-opacity="0" result="BackgroundImageFix"/>
<feBlend mode="normal" in="SourceGraphic" in2="BackgroundImageFix" result="shape"/>
<feColorMatrix in="SourceAlpha" type="matrix" values="0 0 0 0 0 0 0 0 0 0 0 0 0 0 0 0 0 0 127 0" result="hardAlpha"/>
<feOffset dx="-2" dy="-2"/>
<feGaussianBlur stdDeviation="2"/>
<feComposite in2="hardAlpha" operator="arithmetic" k2="-1" k3="1"/>
<feColorMatrix type="matrix" values="0 0 0 0 0 0 0 0 0 0 0 0 0 0 0 0 0 0 0.4 0"/>
<feBlend mode="normal" in2="shape" result="effect1_innerShadow_376_2"/>
<feColorMatrix in="SourceAlpha" type="matrix" values="0 0 0 0 0 0 0 0 0 0 0 0 0 0 0 0 0 0 127 0" result="hardAlpha"/>
<feOffset dx="1" dy="1"/>
<feGaussianBlur stdDeviation="1"/>
<feComposite in2="hardAlpha" operator="arithmetic" k2="-1" k3="1"/>
<feColorMatrix type="matrix" values="0 0 0 0 0 0 0 0 0 0 0 0 0 0 0 0 0 0 0.3 0"/>
<feBlend mode="normal" in2="effect1_innerShadow_376_2" result="effect2_innerShadow_376_2"/>
</filter>
<filter id="filter4_ii_376_2" x="308.53" y="246.51" width="26.8313" height="29.6912" filterUnits="userSpaceOnUse" color-interpolation-filters="sRGB">
<feFlood flood-opacity="0" result="BackgroundImageFix"/>
<feBlend mode="normal" in="SourceGraphic" in2="BackgroundImageFix" result="shape"/>
<feColorMatrix in="SourceAlpha" type="matrix" values="0 0 0 0 0 0 0 0 0 0 0 0 0 0 0 0 0 0 127 0" result="hardAlpha"/>
<feOffset dx="-2" dy="-2"/>
<feGaussianBlur stdDeviation="2"/>
<feComposite in2="hardAlpha" operator="arithmetic" k2="-1" k3="1"/>
<feColorMatrix type="matrix" values="0 0 0 0 0 0 0 0 0 0 0 0 0 0 0 0 0 0 0.4 0"/>
<feBlend mode="normal" in2="shape" result="effect1_innerShadow_376_2"/>
<feColorMatrix in="SourceAlpha" type="matrix" values="0 0 0 0 0 0 0 0 0 0 0 0 0 0 0 0 0 0 127 0" result="hardAlpha"/>
<feOffset dx="1" dy="1"/>
<feGaussianBlur stdDeviation="1"/>
<feComposite in2="hardAlpha" operator="arithmetic" k2="-1" k3="1"/>
<feColorMatrix type="matrix" values="0 0 0 0 0 0 0 0 0 0 0 0 0 0 0 0 0 0 0.3 0"/>
<feBlend mode="normal" in2="effect1_innerShadow_376_2" result="effect2_innerShadow_376_2"/>
</filter>
<filter id="filter5_ii_376_2" x="47.0531" y="272.201" width="313.331" height="14.4858" filterUnits="userSpaceOnUse" color-interpolation-filters="sRGB">
<feFlood flood-opacity="0" result="BackgroundImageFix"/>
<feBlend mode="normal" in="SourceGraphic" in2="BackgroundImageFix" result="shape"/>
<feColorMatrix in="SourceAlpha" type="matrix" values="0 0 0 0 0 0 0 0 0 0 0 0 0 0 0 0 0 0 127 0" result="hardAlpha"/>
<feOffset dx="1" dy="1"/>
<feGaussianBlur stdDeviation="2"/>
<feComposite in2="hardAlpha" operator="arithmetic" k2="-1" k3="1"/>
<feColorMatrix type="matrix" values="0 0 0 0 0 0 0 0 0 0 0 0 0 0 0 0 0 0 0.3 0"/>
<feBlend mode="normal" in2="shape" result="effect1_innerShadow_376_2"/>
<feColorMatrix in="SourceAlpha" type="matrix" values="0 0 0 0 0 0 0 0 0 0 0 0 0 0 0 0 0 0 127 0" result="hardAlpha"/>
<feOffset dx="-3" dy="-3"/>
<feGaussianBlur stdDeviation="3"/>
<feComposite in2="hardAlpha" operator="arithmetic" k2="-1" k3="1"/>
<feColorMatrix type="matrix" values="0 0 0 0 0 0 0 0 0 0 0 0 0 0 0 0 0 0 0.45 0"/>
<feBlend mode="normal" in2="effect1_innerShadow_376_2" result="effect2_innerShadow_376_2"/>
</filter>
<filter id="filter6_dii_376_2" x="135.327" y="194.848" width="136.783" height="88.3538" filterUnits="userSpaceOnUse" color-interpolation-filters="sRGB">
<feFlood flood-opacity="0" result="BackgroundImageFix"/>
<feColorMatrix in="SourceAlpha" type="matrix" values="0 0 0 0 0 0 0 0 0 0 0 0 0 0 0 0 0 0 127 0" result="hardAlpha"/>
<feOffset dy="4"/>
<feGaussianBlur stdDeviation="2"/>
<feComposite in2="hardAlpha" operator="out"/>
<feColorMatrix type="matrix" values="0 0 0 0 0 0 0 0 0 0 0 0 0 0 0 0 0 0 0.25 0"/>
<feBlend mode="normal" in2="BackgroundImageFix" result="effect1_dropShadow_376_2"/>
<feBlend mode="normal" in="SourceGraphic" in2="effect1_dropShadow_376_2" result="shape"/>
<feColorMatrix in="SourceAlpha" type="matrix" values="0 0 0 0 0 0 0 0 0 0 0 0 0 0 0 0 0 0 127 0" result="hardAlpha"/>
<feOffset dx="4" dy="4"/>
<feGaussianBlur stdDeviation="4"/>
<feComposite in2="hardAlpha" operator="arithmetic" k2="-1" k3="1"/>
<feColorMatrix type="matrix" values="0 0 0 0 0 0 0 0 0 0 0 0 0 0 0 0 0 0 0.3 0"/>
<feBlend mode="normal" in2="shape" result="effect2_innerShadow_376_2"/>
<feColorMatrix in="SourceAlpha" type="matrix" values="0 0 0 0 0 0 0 0 0 0 0 0 0 0 0 0 0 0 127 0" result="hardAlpha"/>
<feOffset dx="-6" dy="-6"/>
<feGaussianBlur stdDeviation="6"/>
<feComposite in2="hardAlpha" operator="arithmetic" k2="-1" k3="1"/>
<feColorMatrix type="matrix" values="0 0 0 0 0 0 0 0 0 0 0 0 0 0 0 0 0 0 0.4 0"/>
<feBlend mode="normal" in2="effect2_innerShadow_376_2" result="effect3_innerShadow_376_2"/>
</filter>
<filter id="filter7_ii_376_2" x="312.09" y="228.133" width="23.2167" height="20.4304" filterUnits="userSpaceOnUse" color-interpolation-filters="sRGB">
<feFlood flood-opacity="0" result="BackgroundImageFix"/>
<feBlend mode="normal" in="SourceGraphic" in2="BackgroundImageFix" result="shape"/>
<feColorMatrix in="SourceAlpha" type="matrix" values="0 0 0 0 0 0 0 0 0 0 0 0 0 0 0 0 0 0 127 0" result="hardAlpha"/>
<feOffset dx="-2" dy="-2"/>
<feGaussianBlur stdDeviation="2"/>
<feComposite in2="hardAlpha" operator="arithmetic" k2="-1" k3="1"/>
<feColorMatrix type="matrix" values="0 0 0 0 0 0 0 0 0 0 0 0 0 0 0 0 0 0 0.4 0"/>
<feBlend mode="normal" in2="shape" result="effect1_innerShadow_376_2"/>
<feColorMatrix in="SourceAlpha" type="matrix" values="0 0 0 0 0 0 0 0 0 0 0 0 0 0 0 0 0 0 127 0" result="hardAlpha"/>
<feOffset dx="1" dy="1"/>
<feGaussianBlur stdDeviation="1"/>
<feComposite in2="hardAlpha" operator="arithmetic" k2="-1" k3="1"/>
<feColorMatrix type="matrix" values="0 0 0 0 0 0 0 0 0 0 0 0 0 0 0 0 0 0 0.3 0"/>
<feBlend mode="normal" in2="effect1_innerShadow_376_2" result="effect2_innerShadow_376_2"/>
</filter>
<linearGradient id="paint0_linear_376_2" x1="325.543" y1="276.472" x2="325.543" y2="247.239" gradientUnits="userSpaceOnUse">
<stop stop-color="#808080" stop-opacity="0.25"/>
<stop offset="0.53514" stop-color="#808080" stop-opacity="0.12"/>
<stop offset="1" stop-color="#808080" stop-opacity="0.1"/>
</linearGradient>
<linearGradient id="paint1_linear_376_2" x1="67463.3" y1="110023" x2="67463.3" y2="20204.1" gradientUnits="userSpaceOnUse">
<stop stop-color="#808080" stop-opacity="0.25"/>
<stop offset="0.53514" stop-color="#808080" stop-opacity="0.12"/>
<stop offset="1" stop-color="#808080" stop-opacity="0.1"/>
</linearGradient>
<linearGradient id="paint2_linear_376_2" x1="64035" y1="46831.9" x2="64035" y2="28811.1" gradientUnits="userSpaceOnUse">
<stop stop-color="#808080" stop-opacity="0.25"/>
<stop offset="0.53514" stop-color="#808080" stop-opacity="0.12"/>
<stop offset="1" stop-color="#808080" stop-opacity="0.1"/>
</linearGradient>
<clipPath id="clip0_376_2">
<rect width="309.331" height="210.797" fill="white" transform="translate(50.0531 79.1794)"/>
</clipPath>
</defs>
</svg>
