<svg width="457" height="430" viewBox="0 0 457 430" fill="none" xmlns="http://www.w3.org/2000/svg">
<g clip-path="url(#clip0_152_504)">
<path d="M234.301 213.319C229.938 213.319 226.401 209.782 226.401 205.419C226.401 201.055 229.938 197.518 234.301 197.518C238.665 197.518 242.202 201.055 242.202 205.419C242.202 209.782 238.665 213.319 234.301 213.319Z" fill="#2EFFFF"/>
<path d="M341.702 196.037V428.611H126.41V196.037H341.702ZM234.056 212.825C235.521 212.825 236.953 212.391 238.171 211.577C239.389 210.763 240.338 209.606 240.899 208.253C241.46 206.9 241.606 205.41 241.32 203.974C241.035 202.537 240.329 201.217 239.293 200.181C238.257 199.145 236.938 198.44 235.501 198.154C234.064 197.868 232.575 198.015 231.221 198.575C229.868 199.136 228.711 200.085 227.897 201.304C227.084 202.522 226.649 203.954 226.649 205.419C226.649 207.383 227.429 209.267 228.819 210.656C230.208 212.045 232.092 212.825 234.056 212.825Z" fill="#3F3D56"/>
<path d="M377.868 408.759C374.454 421.38 362.76 429.196 362.76 429.196C362.76 429.196 356.601 416.55 360.015 403.93C363.429 391.31 375.123 383.493 375.123 383.493C375.123 383.493 381.282 396.139 377.868 408.759Z" fill="#2EFFFF"/>
<path d="M372.851 406.047C363.483 415.167 362.339 429.186 362.339 429.186C362.339 429.186 376.383 428.419 385.752 419.299C395.12 410.18 396.264 396.161 396.264 396.161C396.264 396.161 382.219 396.928 372.851 406.047Z" fill="#30FF9C"/>
<path d="M0.2453 428.117H399.72V429.105H0.2453V428.117Z" fill="#3F3D56"/>
<path d="M263.436 244.675H150.359C149.442 244.675 148.563 244.311 147.915 243.662C147.267 243.014 146.902 242.135 146.902 241.218C146.902 240.301 147.267 239.422 147.915 238.774C148.563 238.126 149.442 237.762 150.359 237.762H263.436C264.353 237.762 265.232 238.126 265.881 238.774C266.529 239.422 266.893 240.301 266.893 241.218C266.893 242.135 266.529 243.014 265.881 243.662C265.232 244.311 264.353 244.675 263.436 244.675Z" fill="#2EFFFF"/>
<path d="M263.436 280.228H150.359C149.442 280.228 148.563 279.863 147.915 279.215C147.267 278.567 146.902 277.688 146.902 276.771C146.902 275.854 147.267 274.975 147.915 274.327C148.563 273.679 149.442 273.314 150.359 273.314H263.436C264.353 273.314 265.232 273.679 265.881 274.327C266.529 274.975 266.893 275.854 266.893 276.771C266.893 277.688 266.529 278.567 265.881 279.215C265.232 279.863 264.353 280.228 263.436 280.228Z" fill="#2EFFFF"/>
<path d="M263.436 315.78H150.359C149.442 315.78 148.563 315.416 147.915 314.768C147.267 314.12 146.902 313.241 146.902 312.324C146.902 311.407 147.267 310.528 147.915 309.88C148.563 309.231 149.442 308.867 150.359 308.867H263.436C264.353 308.867 265.232 309.231 265.881 309.88C266.529 310.528 266.893 311.407 266.893 312.324C266.893 313.241 266.529 314.12 265.881 314.768C265.232 315.416 264.353 315.78 263.436 315.78Z" fill="#2EFFFF"/>
<path d="M263.436 351.333H150.359C149.442 351.333 148.563 350.969 147.915 350.321C147.267 349.673 146.902 348.793 146.902 347.877C146.902 346.96 147.267 346.081 147.915 345.432C148.563 344.784 149.442 344.42 150.359 344.42H263.436C264.353 344.42 265.232 344.784 265.881 345.432C266.529 346.081 266.893 346.96 266.893 347.877C266.893 348.793 266.529 349.673 265.881 350.321C265.232 350.969 264.353 351.333 263.436 351.333Z" fill="#2EFFFF"/>
<path d="M263.436 386.886H150.359C149.442 386.886 148.563 386.522 147.915 385.873C147.267 385.225 146.902 384.346 146.902 383.429C146.902 382.513 147.267 381.633 147.915 380.985C148.563 380.337 149.442 379.973 150.359 379.973H263.436C264.353 379.973 265.232 380.337 265.881 380.985C266.529 381.633 266.893 382.513 266.893 383.429C266.893 384.346 266.529 385.225 265.881 385.873C265.232 386.522 264.353 386.886 263.436 386.886Z" fill="#2EFFFF"/>
<path d="M234.149 244.922H149.528C148.701 244.922 147.908 244.557 147.323 243.909C146.738 243.261 146.41 242.382 146.41 241.465C146.41 240.548 146.738 239.669 147.323 239.021C147.908 238.373 148.701 238.009 149.528 238.009H234.149C234.976 238.009 235.769 238.373 236.354 239.021C236.939 239.669 237.267 240.548 237.267 241.465C237.267 242.382 236.939 243.261 236.354 243.909C235.769 244.557 234.976 244.922 234.149 244.922Z" fill="#30FF9C"/>
<path d="M214.551 280.228H149.865C148.948 280.228 148.069 279.863 147.421 279.215C146.773 278.567 146.408 277.688 146.408 276.771C146.408 275.854 146.773 274.975 147.421 274.327C148.069 273.679 148.948 273.314 149.865 273.314H214.551C215.468 273.314 216.347 273.679 216.995 274.327C217.644 274.975 218.008 275.854 218.008 276.771C218.008 277.688 217.644 278.567 216.995 279.215C216.347 279.863 215.468 280.228 214.551 280.228Z" fill="#30FF9C"/>
<path d="M224.983 316.027H154.743C152.533 316.027 150.414 315.663 148.851 315.015C147.288 314.367 146.41 313.487 146.41 312.571C146.41 311.654 147.288 310.775 148.851 310.127C150.414 309.478 152.533 309.114 154.743 309.114H224.983C227.193 309.114 229.313 309.478 230.876 310.127C232.439 310.775 233.317 311.654 233.317 312.571C233.317 313.487 232.439 314.367 230.876 315.015C229.313 315.663 227.193 316.027 224.983 316.027Z" fill="#30FF9C"/>
<path d="M252.573 351.333H149.865C148.948 351.333 148.069 350.969 147.421 350.321C146.773 349.673 146.408 348.793 146.408 347.877C146.408 346.96 146.773 346.081 147.421 345.432C148.069 344.784 148.948 344.42 149.865 344.42H252.573C253.49 344.42 254.369 344.784 255.017 345.432C255.665 346.081 256.03 346.96 256.03 347.877C256.03 348.793 255.665 349.673 255.017 350.321C254.369 350.969 253.49 351.333 252.573 351.333Z" fill="#30FF9C"/>
<path d="M229.859 386.886H149.865C148.948 386.886 148.069 386.522 147.421 385.873C146.773 385.225 146.408 384.346 146.408 383.429C146.408 382.513 146.773 381.633 147.421 380.985C148.069 380.337 148.948 379.973 149.865 379.973H229.859C230.775 379.973 231.655 380.337 232.303 380.985C232.951 381.633 233.315 382.513 233.315 383.429C233.315 384.346 232.951 385.225 232.303 385.873C231.655 386.522 230.775 386.886 229.859 386.886Z" fill="#30FF9C"/>
<path d="M310.346 237.762H309.359V244.675H310.346V237.762Z" fill="#30FF9C"/>
<path d="M317.753 245.169C316.972 245.169 316.208 244.937 315.558 244.503C314.909 244.069 314.402 243.452 314.103 242.73C313.804 242.008 313.726 241.214 313.879 240.448C314.031 239.681 314.407 238.977 314.96 238.425C315.512 237.872 316.216 237.496 316.982 237.344C317.749 237.191 318.543 237.27 319.265 237.569C319.987 237.868 320.604 238.374 321.038 239.024C321.472 239.673 321.703 240.437 321.703 241.218C321.702 242.266 321.286 243.27 320.545 244.01C319.804 244.751 318.8 245.167 317.753 245.169ZM317.753 238.255C317.167 238.255 316.594 238.429 316.107 238.755C315.62 239.08 315.24 239.543 315.016 240.084C314.792 240.626 314.733 241.222 314.847 241.796C314.962 242.371 315.244 242.899 315.658 243.313C316.072 243.728 316.6 244.01 317.175 244.124C317.75 244.238 318.346 244.18 318.887 243.955C319.428 243.731 319.891 243.351 320.217 242.864C320.542 242.377 320.716 241.804 320.716 241.218C320.715 240.433 320.403 239.68 319.847 239.124C319.292 238.569 318.539 238.256 317.753 238.255Z" fill="#30FF9C"/>
<path d="M310.346 273.314H309.359V280.228H310.346V273.314Z" fill="#30FF9C"/>
<path d="M317.753 280.721C316.972 280.721 316.208 280.49 315.558 280.056C314.909 279.621 314.402 279.005 314.103 278.283C313.804 277.561 313.726 276.767 313.879 276C314.031 275.234 314.407 274.53 314.96 273.978C315.512 273.425 316.216 273.049 316.982 272.897C317.749 272.744 318.543 272.822 319.265 273.121C319.987 273.42 320.604 273.927 321.038 274.576C321.472 275.226 321.703 275.99 321.703 276.771C321.702 277.818 321.286 278.822 320.545 279.563C319.804 280.304 318.8 280.72 317.753 280.721ZM317.753 273.808C317.167 273.808 316.594 273.982 316.107 274.308C315.62 274.633 315.24 275.096 315.016 275.637C314.792 276.179 314.733 276.774 314.847 277.349C314.962 277.924 315.244 278.452 315.658 278.866C316.072 279.28 316.6 279.562 317.175 279.677C317.75 279.791 318.346 279.732 318.887 279.508C319.428 279.284 319.891 278.904 320.217 278.417C320.542 277.93 320.716 277.357 320.716 276.771C320.715 275.985 320.403 275.232 319.847 274.677C319.292 274.122 318.539 273.809 317.753 273.808Z" fill="#30FF9C"/>
<path d="M310.346 308.867H309.359V315.78H310.346V308.867Z" fill="#30FF9C"/>
<path d="M317.753 316.274C316.972 316.274 316.208 316.042 315.558 315.608C314.909 315.174 314.402 314.557 314.103 313.836C313.804 313.114 313.726 312.319 313.879 311.553C314.031 310.787 314.407 310.083 314.96 309.531C315.512 308.978 316.216 308.602 316.982 308.449C317.749 308.297 318.543 308.375 319.265 308.674C319.987 308.973 320.604 309.48 321.038 310.129C321.472 310.779 321.703 311.543 321.703 312.324C321.702 313.371 321.286 314.375 320.545 315.116C319.804 315.856 318.8 316.273 317.753 316.274ZM317.753 309.361C317.167 309.361 316.594 309.535 316.107 309.86C315.62 310.186 315.24 310.649 315.016 311.19C314.792 311.731 314.733 312.327 314.847 312.902C314.962 313.477 315.244 314.004 315.658 314.419C316.072 314.833 316.6 315.115 317.175 315.23C317.75 315.344 318.346 315.285 318.887 315.061C319.428 314.837 319.891 314.457 320.217 313.97C320.542 313.483 320.716 312.91 320.716 312.324C320.715 311.538 320.403 310.785 319.847 310.23C319.292 309.674 318.539 309.362 317.753 309.361Z" fill="#30FF9C"/>
<path d="M310.346 344.42H309.359V351.333H310.346V344.42Z" fill="#30FF9C"/>
<path d="M317.753 351.827C316.972 351.827 316.208 351.595 315.558 351.161C314.909 350.727 314.402 350.11 314.103 349.388C313.804 348.666 313.726 347.872 313.879 347.106C314.031 346.34 314.407 345.636 314.96 345.083C315.512 344.531 316.216 344.155 316.982 344.002C317.749 343.85 318.543 343.928 319.265 344.227C319.987 344.526 320.604 345.032 321.038 345.682C321.472 346.332 321.703 347.095 321.703 347.877C321.702 348.924 321.286 349.928 320.545 350.669C319.804 351.409 318.8 351.826 317.753 351.827ZM317.753 344.914C317.167 344.914 316.594 345.088 316.107 345.413C315.62 345.739 315.24 346.201 315.016 346.743C314.792 347.284 314.733 347.88 314.847 348.455C314.962 349.029 315.244 349.557 315.658 349.972C316.072 350.386 316.6 350.668 317.175 350.782C317.75 350.897 318.346 350.838 318.887 350.614C319.428 350.39 319.891 350.01 320.217 349.523C320.542 349.035 320.716 348.463 320.716 347.877C320.715 347.091 320.403 346.338 319.847 345.783C319.292 345.227 318.539 344.915 317.753 344.914Z" fill="#30FF9C"/>
<path d="M310.346 379.973H309.359V386.886H310.346V379.973Z" fill="#30FF9C"/>
<path d="M317.753 387.38C316.972 387.38 316.208 387.148 315.558 386.714C314.909 386.28 314.402 385.663 314.103 384.941C313.804 384.219 313.726 383.425 313.879 382.659C314.031 381.892 314.407 381.189 314.96 380.636C315.512 380.084 316.216 379.707 316.982 379.555C317.749 379.403 318.543 379.481 319.265 379.78C319.987 380.079 320.604 380.585 321.038 381.235C321.472 381.884 321.703 382.648 321.703 383.429C321.702 384.477 321.286 385.481 320.545 386.221C319.804 386.962 318.8 387.378 317.753 387.38ZM317.753 380.467C317.167 380.467 316.594 380.64 316.107 380.966C315.62 381.291 315.24 381.754 315.016 382.296C314.792 382.837 314.733 383.433 314.847 384.007C314.962 384.582 315.244 385.11 315.658 385.524C316.072 385.939 316.6 386.221 317.175 386.335C317.75 386.449 318.346 386.391 318.887 386.167C319.428 385.942 319.891 385.563 320.217 385.075C320.542 384.588 320.716 384.015 320.716 383.429C320.715 382.644 320.403 381.891 319.847 381.335C319.292 380.78 318.539 380.467 317.753 380.467Z" fill="#30FF9C"/>
<path d="M317.753 243.193C318.844 243.193 319.728 242.309 319.728 241.218C319.728 240.127 318.844 239.243 317.753 239.243C316.662 239.243 315.778 240.127 315.778 241.218C315.778 242.309 316.662 243.193 317.753 243.193Z" fill="#30FF9C"/>
<path d="M317.753 349.852C318.844 349.852 319.728 348.967 319.728 347.877C319.728 346.786 318.844 345.901 317.753 345.901C316.662 345.901 315.778 346.786 315.778 347.877C315.778 348.967 316.662 349.852 317.753 349.852Z" fill="#30FF9C"/>
<path d="M317.753 385.405C318.844 385.405 319.728 384.52 319.728 383.429C319.728 382.339 318.844 381.454 317.753 381.454C316.662 381.454 315.778 382.339 315.778 383.429C315.778 384.52 316.662 385.405 317.753 385.405Z" fill="#30FF9C"/>
<path d="M234.056 208.875C232.147 208.875 230.599 207.328 230.599 205.419C230.599 203.51 232.147 201.962 234.056 201.962C235.965 201.962 237.512 203.51 237.512 205.419C237.512 207.328 235.965 208.875 234.056 208.875Z" fill="#3F3D56"/>
</g>
<path d="M18.4798 219.863H136.886V221.554H18.4798V219.863Z" fill="#F2F2F2"/>
<path d="M103.056 204.639H104.747V220.286H103.056V204.639Z" fill="#F2F2F2"/>
<path d="M51.4647 204.639H53.1562V220.286H51.4647V204.639Z" fill="#F2F2F2"/>
<path d="M85.2948 112.874H86.9863V128.521H85.2948V112.874Z" fill="#F2F2F2"/>
<path d="M32.3361 209.696V230.65C32.3361 230.65 27.2918 264.408 27.2918 293.898C27.2918 323.388 35.4404 392.07 35.4404 392.07C35.4404 392.07 51.7376 397.89 52.9017 388.965C54.0658 380.041 57.17 332.701 57.17 325.717C57.17 318.732 70.751 265.572 70.751 265.572L79.2876 324.552C79.2876 324.552 76.5714 394.398 79.2876 396.338C82.0038 398.278 95.1968 401.77 96.7489 398.278C98.301 394.786 106.45 319.896 106.45 319.896C106.45 319.896 113.046 222.113 109.166 216.292C105.286 210.472 101.793 205.816 101.793 205.816C101.793 205.816 46.3052 192.235 32.3361 209.696Z" fill="#434255"/>
<path d="M37.3805 389.741L36.4074 396.066C36.0815 398.224 35.8693 400.398 35.7715 402.578C35.6201 405.755 35.0913 410.651 33.2805 411.427C30.5643 412.591 12.9347 427.459 25.3517 428.235C37.7686 429.011 43.9804 430.352 47.6584 427.496C52.0066 424.12 47.0812 425.649 49.0214 425.649C50.9615 425.649 53.2897 425.649 54.0658 422.545C54.8418 419.44 52.9017 414.008 52.9017 414.008V389.741H37.3805Z" fill="#434255"/>
<path d="M95.3184 389.437L96.2915 395.762C96.6174 397.92 96.8297 400.094 96.9275 402.274C97.0789 405.451 97.6077 410.347 99.4185 411.123C102.135 412.287 119.764 427.155 107.347 427.931C94.9304 428.707 88.7185 430.048 85.0406 427.192C80.6924 423.817 85.6177 425.345 83.6776 425.345C81.7374 425.345 79.4093 425.345 78.6332 422.241C77.8572 419.137 79.7973 413.704 79.7973 413.704V389.437H95.3184Z" fill="#434255"/>
<path d="M84.3322 41.2912C84.3322 41.2912 77.7357 57.5884 73.0793 60.3046C68.423 63.0208 70.7511 75.4377 70.7511 75.4377L82.392 91.7349H91.7047L102.958 72.3335C102.958 72.3335 103.734 59.5285 106.062 56.4243C108.39 53.3201 84.3322 41.2912 84.3322 41.2912Z" fill="#FDA57D"/>
<path d="M74.6315 74.6619L57.1702 78.5422L44.3652 207.368C44.3652 207.368 51.3498 208.532 58.3343 217.845C65.3188 227.157 73.8555 225.605 78.1238 223.277C82.3921 220.949 99.4654 214.352 99.8534 211.636C100.241 208.92 99.0773 161.192 99.0773 161.192L109.942 86.6908L104.51 78.5422H94.809L87.0484 85.1387L74.6315 74.6619Z" fill="#30FF9C"/>
<path d="M71.9153 68.0653C71.9153 68.0653 33.8885 71.9455 30.3962 80.0941C26.9039 88.2428 32.7244 124.329 32.7244 124.329C32.7244 124.329 18.7553 155.76 19.1434 163.132C19.5314 170.505 5.95039 220.949 20.6955 215.128C35.4406 209.308 30.7842 194.175 38.1568 205.039C45.5293 215.904 48.6335 214.352 48.6335 214.352C48.6335 214.352 56.0061 226.381 58.3343 225.217C60.6624 224.053 62.2145 215.128 57.1702 210.86C52.1258 206.591 52.9019 199.219 62.6026 185.25C72.3033 171.281 82.3921 97.9435 76.5717 86.6906C70.7512 75.4378 71.9153 68.0653 71.9153 68.0653Z" fill="#6B6E9D"/>
<path d="M32.3362 217.068L38.9331 223.277L47.082 217.845L43.589 209.696L32.3362 217.068Z" fill="#FDA57D"/>
<path d="M99.8533 74.6619C99.8533 74.6619 129.344 85.5267 129.344 97.1676C129.344 108.808 111.494 159.64 111.494 159.64C111.494 159.64 111.494 172.833 112.27 175.937C113.046 179.042 125.255 206.116 114.598 208.532C107.947 210.04 102.481 214.001 101.987 219.591C101.401 226.229 106.483 234.607 106.062 236.082C105.286 238.798 100.629 242.678 101.017 240.738C101.405 238.798 97.9132 210.86 92.4807 198.443C87.0483 186.026 94.8089 102.6 96.361 91.7352C97.1101 85.9671 98.2773 80.2609 99.8533 74.6619Z" fill="#6B6E9D"/>
<path d="M115.374 216.292L108.39 232.978L103.151 222.307L109.166 208.919L115.374 216.292Z" fill="#FDA57D"/>
<path d="M78.2858 53.7924C78.2858 53.7924 71.9153 56.4247 68.035 56.4247C64.1547 56.4247 48.2455 64.5733 53.6779 69.6177C59.1103 74.6621 67.2589 75.8261 71.1392 83.1987C75.0195 90.5712 76.9596 91.7353 76.9596 91.7353L83.8679 82.4553C83.8679 82.4553 74.2435 71.5578 74.6315 68.0656C75.0195 64.5733 78.2858 53.7924 78.2858 53.7924Z" fill="#30FF9C"/>
<path d="M104.005 63.1215C104.005 63.1215 108.778 64.9609 109.942 68.0651C111.106 71.1694 118.478 76.9898 115.374 78.5419C112.27 80.094 98.689 86.3025 95.9728 87.4665C93.2566 88.6306 88.1946 84.1639 88.1946 84.1639C88.1946 84.1639 95.0028 80.288 95.0028 77.5718C95.0028 74.8556 104.005 63.1215 104.005 63.1215Z" fill="#30FF9C"/>
<path d="M120.031 91.7353L129.343 94.0634C129.343 94.0634 142.148 151.492 138.268 165.849C134.388 180.206 116.15 223.277 116.15 223.277L104.51 209.696C104.51 209.696 109.587 178.813 112.481 176.793C115.374 174.773 113.434 170.505 113.434 169.341C113.434 168.177 112.27 168.953 114.986 166.237C117.702 163.521 104.897 148.387 108.39 144.119C111.882 139.851 120.031 91.7353 120.031 91.7353Z" fill="#6B6E9D"/>
<path d="M35.8289 78.5423L30.3965 80.0944C30.3965 80.0944 15.2634 90.9592 12.1591 106.868C9.05495 122.778 -2.97402 154.596 4.78659 168.565C12.5472 182.534 26.1282 222.889 30.7845 222.113C35.4409 221.337 46.6937 211.636 47.0817 210.084C47.4698 208.532 26.9043 172.833 30.0085 170.117C33.1127 167.401 32.3367 160.416 30.0085 158.864C27.6803 157.312 24.9641 149.94 26.9043 150.328C28.8444 150.716 34.6649 146.835 33.5008 142.567C32.3367 138.299 39.3212 109.585 39.3212 109.585L35.8289 78.5423Z" fill="#6B6E9D"/>
<path d="M97.0285 404.169H79.7459V409.6L98.0161 409.6L97.0285 404.169Z" fill="#2EFFFF"/>
<path d="M52.9067 404.169H35.6308L34.6639 409.6H52.9067L52.9067 404.169Z" fill="#2EFFFF"/>
<path d="M95.5747 66.1031C82.3264 66.1031 71.5867 55.2439 71.5867 41.8485C71.5867 28.4531 82.3264 17.5939 95.5747 17.5939C108.823 17.5939 119.563 28.4531 119.563 41.8485C119.563 55.2439 108.823 66.1031 95.5747 66.1031Z" fill="#FDA57D"/>
<path d="M82.7548 46.9838C80.9899 46.9838 79.5592 44.7355 79.5592 41.9621C79.5592 39.1887 80.9899 36.9404 82.7548 36.9404C84.5197 36.9404 85.9504 39.1887 85.9504 41.9621C85.9504 44.7355 84.5197 46.9838 82.7548 46.9838Z" fill="#FDA57D"/>
<path d="M71.4953 42.877L73.73 44.5262C76.0774 49.5044 78.6567 51.6379 84.0128 55.0624C95.89 52.3375 103.432 58.0343 103.432 58.0343C110.134 60.3434 112.541 58.4952 116.631 51.7101L117.964 50.6439C117.031 55.6239 113.971 61.17 109.171 63.9842C104.372 66.7984 98.3715 67.8321 92.4652 66.8623C86.5589 65.8925 81.2208 62.9968 77.6037 58.8007C73.9866 54.6045 70.7434 47.8867 71.4953 42.877ZM93.8461 60.005C98.23 60.6759 101.899 60.4679 102.041 59.5403C102.183 58.6128 98.7441 57.3169 94.3602 56.646C89.9763 55.9751 86.3074 56.1831 86.1654 57.1107C86.0235 58.0383 89.4623 59.3341 93.8461 60.005Z" fill="#72351C"/>
<path d="M121.933 31.5699C122.069 29.0446 121.602 26.5285 120.572 24.2329C117.483 17.3679 109.727 13.2264 107.695 5.96339C106.093 7.15835 105.952 9.87606 107.423 11.2078C103.43 9.66477 98.9144 7.5474 97.9154 3.3474C96.855 4.45543 96.1254 5.84194 95.8115 7.34572C95.4976 8.84951 95.6123 10.4088 96.1422 11.8423C96.0617 14.5641 91.6979 15.9619 86.2211 15.1709C85.161 17.5069 85.7846 20.3352 87.2071 22.4442C88.6296 24.5533 90.7413 26.0743 92.8591 27.4674C98.1038 30.0483 119.004 43.8192 121.933 31.5699Z" fill="#72351C"/>
<path d="M86.2067 28.5437H97.7391C97.7391 28.5437 116.664 36.7841 117.847 38.2208C119.03 39.6574 116.664 51.71 116.664 51.71L117.847 51.1235C119.676 44.8708 120.162 41.4965 119.03 35.9845L86.5024 19.7464C84.3233 19.5295 82.0463 20.9492 74.6743 28.5437C70.4885 38.2456 70.597 41.0205 71.7173 44.9654C75.0889 44.8279 75.261 42.4189 75.8572 38.514L86.2067 28.5437Z" fill="#72351C"/>
<defs>
<clipPath id="clip0_152_504">
<rect width="457" height="318.585" fill="white" transform="matrix(-1 0 0 1 457 110.611)"/>
</clipPath>
</defs>
</svg>
