<svg width="520" height="505" viewBox="0 0 520 505" fill="none" xmlns="http://www.w3.org/2000/svg">
<g clip-path="url(#clip0_152_337)">
<path d="M166.782 269.174H500.308V270.362H166.782V269.174Z" fill="#3F3D56"/>
<g filter="url(#filter0_ii_152_337)">
<path d="M147.318 58.293H509.429C514.952 58.293 519.429 62.7701 519.429 68.293V235.163C519.429 240.685 514.952 245.163 509.429 245.163H147.318C141.796 245.163 137.318 240.685 137.318 235.163V68.293C137.318 62.7701 141.796 58.293 147.318 58.293Z" fill="#3F3D56"/>
</g>
<path opacity="0.1" d="M137.318 72.6676V67.5338H149.068V58.293H154.176V67.5338H502.571V58.293H507.68V67.5338H519.429V72.6676H507.68V230.788H519.429V235.922H507.68V245.163H502.571V235.922H154.176V245.163H149.068V235.922H137.318V230.788H149.068V72.6676H137.318ZM154.176 230.788H502.571V72.6676H154.176L154.176 230.788Z" fill="black"/>
<g filter="url(#filter1_ii_152_337)">
<path d="M371.973 82.9351H321.724C318.962 82.9351 316.724 85.1736 316.724 87.9351V135.531C316.724 138.292 318.962 140.531 321.724 140.531H371.973C374.735 140.531 376.973 138.292 376.973 135.531V87.9351C376.973 85.1736 374.735 82.9351 371.973 82.9351Z" fill="#D0CDE1"/>
</g>
<path d="M370.126 89.8157H323.57V125.594H370.126V89.8157Z" fill="#30FF9C"/>
<path d="M350.136 95.6954H333.814V112.098H350.136V95.6954Z" fill="#2EFFFF"/>
<path d="M340.063 99.7971V119.714H359.882V99.7971H340.063ZM359.022 118.85H340.922V100.661H359.022V118.85Z" fill="#3F3D56"/>
<path d="M348.847 129.146H323.524V130.485H348.847V129.146Z" fill="#F2F2F2"/>
<path d="M320.413 88.9625C318.941 88.9625 317.747 87.7631 317.747 86.2836C317.747 84.8041 318.941 83.6047 320.413 83.6047C321.885 83.6047 323.078 84.8041 323.078 86.2836C323.078 87.7631 321.885 88.9625 320.413 88.9625Z" fill="#3F3D56"/>
<g filter="url(#filter2_ii_152_337)">
<path d="M394.696 166.005H344.447C341.685 166.005 339.447 168.244 339.447 171.005V218.601C339.447 221.362 341.685 223.601 344.447 223.601H394.696C397.457 223.601 399.696 221.362 399.696 218.601V171.005C399.696 168.244 397.457 166.005 394.696 166.005Z" fill="#D0CDE1"/>
</g>
<path d="M392.849 172.886H346.293V208.664H392.849V172.886Z" fill="#30FF9C"/>
<path d="M371.57 212.885H346.247V214.225H371.57V212.885Z" fill="#F2F2F2"/>
<path d="M371.57 216.904H346.247V218.243H371.57V216.904Z" fill="#F2F2F2"/>
<path d="M354.577 196.142C357.522 196.142 359.908 193.744 359.908 190.785C359.908 187.826 357.522 185.427 354.577 185.427C351.633 185.427 349.246 187.826 349.246 190.785C349.246 193.744 351.633 196.142 354.577 196.142Z" fill="#3F3D56"/>
<path d="M369.571 196.142C372.515 196.142 374.902 193.744 374.902 190.785C374.902 187.826 372.515 185.427 369.571 185.427C366.627 185.427 364.24 187.826 364.24 190.785C364.24 193.744 366.627 196.142 369.571 196.142Z" fill="#F2F2F2"/>
<path d="M384.565 196.142C387.51 196.142 389.897 193.744 389.897 190.785C389.897 187.826 387.51 185.427 384.565 185.427C381.621 185.427 379.234 187.826 379.234 190.785C379.234 193.744 381.621 196.142 384.565 196.142Z" fill="#2EFFFF"/>
<path d="M369.571 172.033C371.043 172.033 372.237 170.833 372.237 169.354C372.237 167.874 371.043 166.675 369.571 166.675C368.099 166.675 366.906 167.874 366.906 169.354C366.906 170.833 368.099 172.033 369.571 172.033Z" fill="#3F3D56"/>
<g filter="url(#filter3_ii_152_337)">
<path d="M302.488 148.01H252.238C249.477 148.01 247.238 150.248 247.238 153.01V200.605C247.238 203.366 249.477 205.605 252.238 205.605H302.488C305.249 205.605 307.488 203.366 307.488 200.605V153.01C307.488 150.248 305.249 148.01 302.488 148.01Z" fill="#D0CDE1"/>
</g>
<path d="M300.641 154.89H254.085V190.669H300.641V154.89Z" fill="#30FF9C"/>
<path d="M274.263 188.32C280.506 188.32 285.566 183.234 285.566 176.961C285.566 170.687 280.506 165.602 274.263 165.602C268.021 165.602 262.96 170.687 262.96 176.961C262.96 183.234 268.021 188.32 274.263 188.32Z" fill="#2EFFFF"/>
<path d="M277.595 185.723C274.792 185.723 272.052 184.887 269.721 183.322C267.391 181.757 265.574 179.533 264.502 176.931C263.429 174.328 263.149 171.465 263.695 168.702C264.242 165.94 265.592 163.402 267.574 161.41C269.556 159.418 272.081 158.062 274.83 157.512C277.579 156.963 280.428 157.245 283.018 158.323C285.607 159.401 287.821 161.226 289.378 163.568C290.935 165.91 291.766 168.664 291.766 171.481C291.762 175.257 290.268 178.877 287.611 181.546C284.954 184.216 281.352 185.718 277.595 185.723ZM277.595 157.757C274.894 157.757 272.253 158.562 270.008 160.07C267.762 161.578 266.012 163.721 264.978 166.229C263.944 168.736 263.674 171.496 264.201 174.158C264.728 176.82 266.028 179.266 267.938 181.185C269.848 183.104 272.281 184.411 274.93 184.941C277.58 185.47 280.325 185.199 282.821 184.16C285.316 183.121 287.449 181.362 288.949 179.105C290.45 176.848 291.251 174.195 291.251 171.481C291.247 167.842 289.807 164.354 287.247 161.781C284.686 159.208 281.215 157.761 277.595 157.757Z" fill="#3F3D56"/>
<path d="M279.362 198.238H254.039V199.578H279.362V198.238Z" fill="#F2F2F2"/>
<path d="M289.358 194.22H254.039V195.559H289.358V194.22Z" fill="#F2F2F2"/>
<path d="M277.363 154.037C278.835 154.037 280.028 152.838 280.028 151.358C280.028 149.879 278.835 148.679 277.363 148.679C275.891 148.679 274.697 149.879 274.697 151.358C274.697 152.838 275.891 154.037 277.363 154.037Z" fill="#3F3D56"/>
<g filter="url(#filter4_ii_152_337)">
<path d="M236.267 81.9082H186.018C183.256 81.9082 181.018 84.1468 181.018 86.9082V134.504C181.018 137.265 183.256 139.504 186.018 139.504H236.267C239.029 139.504 241.267 137.265 241.267 134.504V86.9082C241.267 84.1468 239.029 81.9082 236.267 81.9082Z" fill="#D0CDE1"/>
</g>
<path d="M234.421 88.7888H187.864V124.567H234.421V88.7888Z" fill="#30FF9C"/>
<path d="M216.15 116.798H206.135V119.781H216.15V116.798Z" fill="#2EFFFF"/>
<path d="M228.259 93.5753H194.026V94.8536H228.259V93.5753Z" fill="#3F3D56"/>
<path d="M228.259 97.6234H194.026V98.9017H228.259V97.6234Z" fill="#3F3D56"/>
<path d="M228.259 101.671H194.026V102.95H228.259V101.671Z" fill="#3F3D56"/>
<path d="M228.259 105.719H194.026V106.998H228.259V105.719Z" fill="#3F3D56"/>
<path d="M228.259 109.768H194.026V111.046H228.259V109.768Z" fill="#3F3D56"/>
<path d="M213.142 128.119H187.818V129.458H213.142V128.119Z" fill="#F2F2F2"/>
<path d="M223.138 131.467H187.818V132.807H223.138V131.467Z" fill="#F2F2F2"/>
<path d="M456.118 87.9359C454.646 87.9359 453.453 86.7365 453.453 85.257C453.453 83.7775 454.646 82.5781 456.118 82.5781C457.59 82.5781 458.784 83.7775 458.784 85.257C458.784 86.7365 457.59 87.9359 456.118 87.9359Z" fill="#3F3D56"/>
<path d="M425.875 119.534L469.509 122.756L481.849 123.667L481.083 122.897L483.4 156.584L484.559 173.427C484.606 174.108 484.654 174.788 484.699 175.469C484.737 176.035 484.892 176.58 484.225 176.72C482.899 176.997 481.518 177.113 480.175 177.283C477.444 177.63 474.707 177.921 471.963 178.158C460.988 179.105 449.955 179.174 438.968 178.366C436.223 178.164 433.482 177.907 430.746 177.594C429.729 177.478 428.466 177.435 428.095 176.288C427.712 175.106 427.646 173.762 427.473 172.536C426.701 167.071 426.175 161.578 425.895 156.058C425.325 145.055 425.713 134.024 427.055 123.089C427.219 121.75 427.399 120.413 427.594 119.078C427.734 118.108 426.258 117.69 426.116 118.668C424.469 129.968 423.835 141.394 424.223 152.808C424.421 158.518 424.875 164.212 425.587 169.888C425.767 171.322 425.963 172.754 426.174 174.183C426.342 175.321 426.383 176.662 427.057 177.64C427.707 178.583 428.799 178.886 429.871 179.029C431.237 179.212 432.611 179.343 433.982 179.478C445.361 180.593 456.813 180.763 468.221 179.987C471.092 179.791 473.958 179.536 476.82 179.221C478.229 179.066 479.637 178.896 481.043 178.712C481.732 178.621 482.419 178.528 483.107 178.432C483.749 178.386 484.384 178.275 485.004 178.1C486.295 177.632 486.294 176.38 486.214 175.214L485.916 170.875L485.319 162.198L482.914 127.235L482.615 122.897C482.609 122.694 482.527 122.502 482.384 122.359C482.242 122.215 482.05 122.133 481.849 122.127L438.215 118.905L425.875 117.994C424.891 117.921 424.896 119.462 425.875 119.534V119.534Z" fill="#2EFFFF"/>
<path d="M444.574 137.716C444.795 137.128 444.241 138.395 444.519 137.834C444.593 137.686 444.662 137.535 444.74 137.388C444.897 137.097 445.069 136.814 445.258 136.543C445.446 136.272 445.732 136.168 445.176 136.638C445.291 136.52 445.399 136.394 445.499 136.262C445.758 135.976 446.035 135.707 446.328 135.455C446.538 135.274 446.935 135.12 446.224 135.521C446.365 135.441 446.495 135.323 446.629 135.232C446.905 135.046 447.189 134.873 447.482 134.715C447.629 134.635 447.777 134.56 447.927 134.488C448.182 134.365 448.606 134.323 447.804 134.53C448.148 134.441 448.482 134.277 448.826 134.179C449.119 134.096 449.415 134.025 449.714 133.968C449.981 133.918 450.466 133.956 449.554 133.977C449.717 133.973 449.884 133.941 450.047 133.93C450.376 133.908 450.706 133.903 451.036 133.915C451.201 133.922 451.364 133.938 451.529 133.948C452.075 133.981 450.702 133.796 451.529 133.954C451.853 134.016 452.173 134.097 452.488 134.197C452.641 134.263 452.797 134.318 452.957 134.363L452.533 134.179C452.637 134.225 452.741 134.272 452.843 134.322C453.147 134.469 453.441 134.635 453.726 134.818C453.867 134.909 454.003 135.008 454.142 135.103C454.578 135.401 453.557 134.601 454.176 135.146C454.386 135.331 454.587 135.525 454.78 135.729C454.896 135.851 455.008 135.976 455.117 136.104C455.301 136.319 455.442 136.712 455.058 136.007C455.41 136.652 455.848 137.238 456.179 137.902C456.461 138.47 455.922 137.198 456.136 137.795C456.194 137.956 456.256 138.115 456.311 138.277C456.42 138.602 456.514 138.931 456.593 139.265C456.672 139.599 456.711 139.94 456.784 140.274C456.583 139.354 456.73 139.886 456.75 140.136C456.768 140.364 456.779 140.592 456.782 140.82C456.787 141.105 456.78 141.39 456.762 141.675C456.751 141.841 456.714 142.019 456.716 142.185C456.704 141.321 456.778 141.751 456.725 142.041C456.663 142.378 456.583 142.71 456.487 143.038C456.438 143.202 456.385 143.364 456.328 143.526C456.277 143.669 456.223 143.811 456.167 143.951C456.331 143.566 456.344 143.529 456.206 143.841C455.36 145.543 454.305 147.129 453.473 148.836C451.407 153.092 450.713 157.89 451.485 162.561C451.698 163.336 452.204 163.996 452.894 164.402C453.61 164.814 454.459 164.926 455.256 164.712C456.983 164.15 457.663 162.634 457.397 160.923C457.303 160.32 457.446 161.461 457.384 160.854C457.358 160.593 457.332 160.333 457.313 160.072C457.277 159.551 457.262 159.028 457.269 158.504C457.274 158.056 457.296 157.608 457.333 157.161C457.334 156.899 457.361 156.637 457.414 156.381C457.413 156.382 457.315 157 457.382 156.644C457.409 156.498 457.429 156.349 457.455 156.202C457.631 155.208 457.886 154.23 458.216 153.277C458.29 153.065 458.37 152.856 458.448 152.646C458.652 152.091 458.235 153.092 458.482 152.555C458.703 152.075 458.931 151.603 459.182 151.139C460.237 149.191 461.431 147.366 462.2 145.27C462.786 143.627 463.018 141.877 462.88 140.136C462.595 136.544 461.08 132.899 458.255 130.573C456.795 129.352 455.069 128.494 453.217 128.07C451.365 127.646 449.44 127.667 447.598 128.132C445.576 128.624 443.705 129.605 442.148 130.99C440.591 132.375 439.394 134.122 438.663 136.079C438.097 137.589 439.291 139.522 440.804 139.868C442.548 140.267 443.968 139.334 444.574 137.716V137.716Z" fill="#2EFFFF"/>
<path d="M455.283 174.415C455.787 174.415 456.279 174.265 456.698 173.984C457.117 173.702 457.444 173.302 457.637 172.835C457.829 172.367 457.88 171.852 457.782 171.355C457.683 170.859 457.441 170.402 457.084 170.044C456.728 169.686 456.274 169.442 455.78 169.344C455.286 169.245 454.773 169.295 454.308 169.489C453.842 169.683 453.444 170.011 453.164 170.432C452.884 170.853 452.735 171.348 452.735 171.855C452.742 172.531 453.013 173.178 453.489 173.657C453.966 174.135 454.609 174.408 455.283 174.415Z" fill="#2EFFFF"/>
<path d="M488.23 263.976H502.533V278.35H488.23V263.976Z" fill="#2EFFFF"/>
<path d="M479.545 270.136H496.914V252.682H479.545V270.136ZM496.159 269.377H480.301V253.44H496.159V269.377Z" fill="#3F3D56"/>
</g>
<path d="M186.491 188.454L197.364 191.632C197.364 191.632 231.24 188.119 225.281 203.289C219.322 218.459 192.402 202.136 192.402 202.136L182.515 200.705L186.491 188.454Z" fill="#FDA57D"/>
<path d="M133.556 102.577C133.556 102.577 138.634 100.855 143.747 121.732C148.86 142.609 153.197 173.961 160.045 177.214C166.894 180.467 201.709 189.94 198.913 190.095L190.149 202.349C166.727 198.958 143.203 191.054 138.379 183.177C133.556 175.3 133.556 102.577 133.556 102.577Z" fill="#6B6E9D"/>
<path d="M144.212 427.022L146.881 443.732H122.862L123.752 427.022H144.212Z" fill="#2EFFFF"/>
<path d="M66.6143 445.526L68.3599 468.857L52.6556 470.652V443.731L66.6143 445.526Z" fill="#2EFFFF"/>
<path d="M134.597 205.948L155.195 323.631L144.421 429.946L122.059 434.924V333.438L95.1919 283.512L73.6982 345.92L67.4477 454.07L50.3001 459.814L45.0399 343.245C45.0399 343.245 50.4134 207.732 55.7868 205.948C61.1602 204.165 134.597 205.948 134.597 205.948Z" fill="#434255"/>
<path d="M141.374 438.852C141.374 438.852 141.374 429.841 148.491 435.248C155.607 440.654 164.504 450.565 164.504 450.565C164.504 450.565 198.309 469.486 174.289 472.189C150.27 474.892 135.147 459.575 135.147 459.575L132.478 462.278C132.478 462.278 118.244 459.575 118.244 455.971C118.347 452.951 118.644 449.941 119.134 446.961C119.134 446.961 121.005 431.677 123.183 434.814C125.361 437.951 137.815 444.258 141.374 438.852Z" fill="#434255"/>
<path d="M51.732 463.404C51.732 463.404 67.5148 455.286 71.0221 462.502C74.5294 469.718 77.1598 484.151 77.1598 484.151C77.1598 484.151 88.5586 506.701 68.3916 504.897C48.2246 503.093 49.1015 491.367 49.1015 488.661C49.1015 485.955 49.9783 479.641 49.1015 476.935C48.2247 474.228 51.732 463.404 51.732 463.404Z" fill="#434255"/>
<path d="M103.489 61.2683L104.387 92.8308L72.0545 90.2006V61.2683H103.489Z" fill="#FDA57D"/>
<path d="M70.3448 73.3362C70.3448 73.3362 85.5454 83.1828 90.0161 84.9731C94.4869 86.7634 104.323 77.8119 104.323 77.8119C104.323 77.8119 107.005 79.6022 107.005 81.3925C107.005 83.1828 108.793 90.344 108.793 90.344L130.253 161.061L128.465 211.189C128.465 211.189 63.1916 217.455 56.0384 209.399C48.8852 201.342 59.615 85.8683 59.615 85.8683L70.3448 73.3362Z" fill="#30FF9C"/>
<path opacity="0.1" d="M74.8269 91.9026C74.8269 91.9026 99.0761 101.661 107.159 92.8784C107.159 92.8785 95.4837 95.8061 74.8269 91.9026Z" fill="black"/>
<path d="M11.6501 285.577C21.4596 291.819 53.5633 299.843 53.5633 299.843C53.5633 299.843 57.068 224.367 69.6152 212.464C82.091 200.614 102.459 115.188 84.1421 100.333C84.0603 100.257 83.974 100.185 83.8834 100.119L72.2905 73.3707C72.2905 73.3707 70.5069 70.6958 66.9398 74.2623C64.0543 77.3538 61.3734 80.6301 58.9139 84.0701L58.4056 84.2752L33.9444 93.878L43.7539 137.568C43.7539 137.568 1.84067 279.336 11.6501 285.577Z" fill="#6B6E9D"/>
<path opacity="0.1" d="M58.1982 84.4387L64.9828 109.54L84.064 100.718C83.9818 100.64 83.895 100.568 83.804 100.501L72.1528 73.3839C72.1528 73.3839 70.3603 70.6722 66.7753 74.2878C63.8753 77.4219 61.1809 80.7433 58.7091 84.2307L58.1982 84.4387Z" fill="black"/>
<path d="M104.388 77.0498L107.041 107.49L107.182 108.877L127.378 303.557C127.378 303.557 145.062 297.29 151.252 290.128C157.442 282.965 137.104 203.285 137.104 203.285L135.336 103.013C135.336 103.013 119.65 91.831 113.239 85.6893C111.736 84.2568 110.745 83.1019 110.577 82.4215C109.693 78.8404 104.388 77.0498 104.388 77.0498Z" fill="#6B6E9D"/>
<path opacity="0.1" d="M104.387 77.0498L107.079 108.124L107.222 109.541L120.091 107.667L113.37 85.8694C111.844 84.4071 110.839 83.2281 110.669 82.5335C109.771 78.8777 104.387 77.0498 104.387 77.0498Z" fill="black"/>
<path d="M56.7419 228.363L66.5127 237.066C66.5127 237.066 62.0714 255.342 56.7419 256.213C56.7419 256.213 53.1889 250.991 52.3007 246.639C51.4124 242.288 43.4182 237.937 43.4182 237.937L56.7419 228.363Z" fill="#FDA57D"/>
<path d="M45.1902 91.9026L33.7619 93.6944C33.7619 93.6944 -4.0397 159.097 0.355839 182.391C4.75137 205.685 39.9156 246.002 39.9156 246.002L61.8933 228.083L29.3664 183.287L46.0693 129.531L45.1902 91.9026Z" fill="#6B6E9D"/>
<path d="M88.6219 71.9195C71.6654 71.9195 57.9194 58.2013 57.9194 41.2791C57.9194 24.3569 71.6654 10.6387 88.6219 10.6387C105.578 10.6387 119.324 24.3569 119.324 41.2791C119.324 58.2013 105.578 71.9195 88.6219 71.9195Z" fill="#72351C"/>
<path d="M88.6225 75.7489C73.0693 75.7489 60.4609 63.0786 60.4609 47.449C60.4609 31.8194 73.0693 19.1492 88.6225 19.1492C104.176 19.1492 116.784 31.8194 116.784 47.449C116.784 63.0786 104.176 75.7489 88.6225 75.7489Z" fill="#FDA57D"/>
<path d="M108.578 19.6091C107.785 17.1094 106.414 14.8399 104.579 12.9912C99.085 7.46621 90.0802 6.2997 85.4609 0C84.3517 1.74816 85.2099 4.43676 87.117 5.1882C82.6972 5.15904 77.5622 4.76493 75.0609 1.05728C74.4424 2.52216 74.2452 4.13559 74.4924 5.70999C74.7395 7.28438 75.4207 8.75508 76.4569 9.95109C72.5342 10.1323 68.3487 12.8409 68.0952 16.8279C67.9263 19.484 69.5632 21.9988 71.7084 23.5221C73.8537 25.0454 76.4492 25.7447 79.0038 26.3178C86.4611 27.9906 113.444 35.0024 108.578 19.6091Z" fill="#72351C"/>
<path d="M60.4609 47.6633H61.2076L75.7365 60.5922C89.7337 54.0392 100.01 60.5922 100.01 60.5922L115.248 48.1947L116.784 48.3876C116.576 55.7774 113.468 62.7889 108.133 67.908C102.797 73.0271 95.6609 75.8431 88.2657 75.748C80.8705 75.6529 73.8095 72.6543 68.6072 67.3997C63.405 62.1451 60.4789 55.056 60.4609 47.6633ZM88.6706 65.5512C94.1505 65.5512 98.5928 64.4411 98.5928 63.0717C98.5928 61.7023 94.1505 60.5922 88.6706 60.5922C83.1908 60.5922 78.7485 61.7023 78.7485 63.0717C78.7485 64.4411 83.1908 65.5512 88.6706 65.5512Z" fill="#72351C"/>
<path d="M116.784 52.3436C115.38 52.3436 114.243 50.1525 114.243 47.4496C114.243 44.7468 115.38 42.5557 116.784 42.5557C118.187 42.5557 119.324 44.7468 119.324 47.4496C119.324 50.1525 118.187 52.3436 116.784 52.3436Z" fill="#FDA57D"/>
<path d="M60.46 52.3436C59.0567 52.3436 57.9191 50.1525 57.9191 47.4496C57.9191 44.7468 59.0567 42.5557 60.46 42.5557C61.8634 42.5557 63.001 44.7468 63.001 47.4496C63.001 50.1525 61.8634 52.3436 60.46 52.3436Z" fill="#FDA57D"/>
<defs>
<filter id="filter0_ii_152_337" x="129.318" y="50.293" width="396.111" height="200.87" filterUnits="userSpaceOnUse" color-interpolation-filters="sRGB">
<feFlood flood-opacity="0" result="BackgroundImageFix"/>
<feBlend mode="normal" in="SourceGraphic" in2="BackgroundImageFix" result="shape"/>
<feColorMatrix in="SourceAlpha" type="matrix" values="0 0 0 0 0 0 0 0 0 0 0 0 0 0 0 0 0 0 127 0" result="hardAlpha"/>
<feOffset dx="-8" dy="-8"/>
<feGaussianBlur stdDeviation="8"/>
<feComposite in2="hardAlpha" operator="arithmetic" k2="-1" k3="1"/>
<feColorMatrix type="matrix" values="0 0 0 0 0 0 0 0 0 0 0 0 0 0 0 0 0 0 0.4 0"/>
<feBlend mode="normal" in2="shape" result="effect1_innerShadow_152_337"/>
<feColorMatrix in="SourceAlpha" type="matrix" values="0 0 0 0 0 0 0 0 0 0 0 0 0 0 0 0 0 0 127 0" result="hardAlpha"/>
<feOffset dx="6" dy="6"/>
<feGaussianBlur stdDeviation="6"/>
<feComposite in2="hardAlpha" operator="arithmetic" k2="-1" k3="1"/>
<feColorMatrix type="matrix" values="0 0 0 0 0 0 0 0 0 0 0 0 0 0 0 0 0 0 0.4 0"/>
<feBlend mode="normal" in2="effect1_innerShadow_152_337" result="effect2_innerShadow_152_337"/>
</filter>
<filter id="filter1_ii_152_337" x="314.724" y="80.9351" width="63.2495" height="60.5956" filterUnits="userSpaceOnUse" color-interpolation-filters="sRGB">
<feFlood flood-opacity="0" result="BackgroundImageFix"/>
<feBlend mode="normal" in="SourceGraphic" in2="BackgroundImageFix" result="shape"/>
<feColorMatrix in="SourceAlpha" type="matrix" values="0 0 0 0 0 0 0 0 0 0 0 0 0 0 0 0 0 0 127 0" result="hardAlpha"/>
<feOffset dx="-2" dy="-2"/>
<feGaussianBlur stdDeviation="2"/>
<feComposite in2="hardAlpha" operator="arithmetic" k2="-1" k3="1"/>
<feColorMatrix type="matrix" values="0 0 0 0 0 0 0 0 0 0 0 0 0 0 0 0 0 0 0.4 0"/>
<feBlend mode="normal" in2="shape" result="effect1_innerShadow_152_337"/>
<feColorMatrix in="SourceAlpha" type="matrix" values="0 0 0 0 0 0 0 0 0 0 0 0 0 0 0 0 0 0 127 0" result="hardAlpha"/>
<feOffset dx="1" dy="1"/>
<feGaussianBlur stdDeviation="1"/>
<feComposite in2="hardAlpha" operator="arithmetic" k2="-1" k3="1"/>
<feColorMatrix type="matrix" values="0 0 0 0 0 0 0 0 0 0 0 0 0 0 0 0 0 0 0.3 0"/>
<feBlend mode="normal" in2="effect1_innerShadow_152_337" result="effect2_innerShadow_152_337"/>
</filter>
<filter id="filter2_ii_152_337" x="337.447" y="164.005" width="63.2494" height="60.5956" filterUnits="userSpaceOnUse" color-interpolation-filters="sRGB">
<feFlood flood-opacity="0" result="BackgroundImageFix"/>
<feBlend mode="normal" in="SourceGraphic" in2="BackgroundImageFix" result="shape"/>
<feColorMatrix in="SourceAlpha" type="matrix" values="0 0 0 0 0 0 0 0 0 0 0 0 0 0 0 0 0 0 127 0" result="hardAlpha"/>
<feOffset dx="-2" dy="-2"/>
<feGaussianBlur stdDeviation="2"/>
<feComposite in2="hardAlpha" operator="arithmetic" k2="-1" k3="1"/>
<feColorMatrix type="matrix" values="0 0 0 0 0 0 0 0 0 0 0 0 0 0 0 0 0 0 0.4 0"/>
<feBlend mode="normal" in2="shape" result="effect1_innerShadow_152_337"/>
<feColorMatrix in="SourceAlpha" type="matrix" values="0 0 0 0 0 0 0 0 0 0 0 0 0 0 0 0 0 0 127 0" result="hardAlpha"/>
<feOffset dx="1" dy="1"/>
<feGaussianBlur stdDeviation="1"/>
<feComposite in2="hardAlpha" operator="arithmetic" k2="-1" k3="1"/>
<feColorMatrix type="matrix" values="0 0 0 0 0 0 0 0 0 0 0 0 0 0 0 0 0 0 0.3 0"/>
<feBlend mode="normal" in2="effect1_innerShadow_152_337" result="effect2_innerShadow_152_337"/>
</filter>
<filter id="filter3_ii_152_337" x="245.238" y="146.01" width="63.2495" height="60.5956" filterUnits="userSpaceOnUse" color-interpolation-filters="sRGB">
<feFlood flood-opacity="0" result="BackgroundImageFix"/>
<feBlend mode="normal" in="SourceGraphic" in2="BackgroundImageFix" result="shape"/>
<feColorMatrix in="SourceAlpha" type="matrix" values="0 0 0 0 0 0 0 0 0 0 0 0 0 0 0 0 0 0 127 0" result="hardAlpha"/>
<feOffset dx="-2" dy="-2"/>
<feGaussianBlur stdDeviation="2"/>
<feComposite in2="hardAlpha" operator="arithmetic" k2="-1" k3="1"/>
<feColorMatrix type="matrix" values="0 0 0 0 0 0 0 0 0 0 0 0 0 0 0 0 0 0 0.4 0"/>
<feBlend mode="normal" in2="shape" result="effect1_innerShadow_152_337"/>
<feColorMatrix in="SourceAlpha" type="matrix" values="0 0 0 0 0 0 0 0 0 0 0 0 0 0 0 0 0 0 127 0" result="hardAlpha"/>
<feOffset dx="1" dy="1"/>
<feGaussianBlur stdDeviation="1"/>
<feComposite in2="hardAlpha" operator="arithmetic" k2="-1" k3="1"/>
<feColorMatrix type="matrix" values="0 0 0 0 0 0 0 0 0 0 0 0 0 0 0 0 0 0 0.3 0"/>
<feBlend mode="normal" in2="effect1_innerShadow_152_337" result="effect2_innerShadow_152_337"/>
</filter>
<filter id="filter4_ii_152_337" x="179.018" y="79.9082" width="63.2495" height="60.5956" filterUnits="userSpaceOnUse" color-interpolation-filters="sRGB">
<feFlood flood-opacity="0" result="BackgroundImageFix"/>
<feBlend mode="normal" in="SourceGraphic" in2="BackgroundImageFix" result="shape"/>
<feColorMatrix in="SourceAlpha" type="matrix" values="0 0 0 0 0 0 0 0 0 0 0 0 0 0 0 0 0 0 127 0" result="hardAlpha"/>
<feOffset dx="-2" dy="-2"/>
<feGaussianBlur stdDeviation="2"/>
<feComposite in2="hardAlpha" operator="arithmetic" k2="-1" k3="1"/>
<feColorMatrix type="matrix" values="0 0 0 0 0 0 0 0 0 0 0 0 0 0 0 0 0 0 0.4 0"/>
<feBlend mode="normal" in2="shape" result="effect1_innerShadow_152_337"/>
<feColorMatrix in="SourceAlpha" type="matrix" values="0 0 0 0 0 0 0 0 0 0 0 0 0 0 0 0 0 0 127 0" result="hardAlpha"/>
<feOffset dx="1" dy="1"/>
<feGaussianBlur stdDeviation="1"/>
<feComposite in2="hardAlpha" operator="arithmetic" k2="-1" k3="1"/>
<feColorMatrix type="matrix" values="0 0 0 0 0 0 0 0 0 0 0 0 0 0 0 0 0 0 0.3 0"/>
<feBlend mode="normal" in2="effect1_innerShadow_152_337" result="effect2_innerShadow_152_337"/>
</filter>
<clipPath id="clip0_152_337">
<rect width="440.298" height="281.646" fill="white" transform="matrix(-1 0 0 1 519.429 58.293)"/>
</clipPath>
</defs>
</svg>
